<svg width="263" height="274" viewBox="0 0 263 274" fill="none" xmlns="http://www.w3.org/2000/svg">
<path d="M14.019 131.318C14.019 131.318 7.37932 133.658 14.1466 148.156C20.9138 162.653 25.6719 169.882 25.6719 169.882C25.6719 169.882 26.8519 173.233 24.1029 173.676C21.3539 174.12 15.352 172.972 14.0445 176.356C12.686 179.869 15.1224 183.285 20.1548 186.362C25.1872 189.438 35.9854 196.596 36.9549 197.248C37.9244 197.9 38.8684 199.458 37.0187 200.064C35.169 200.67 21.609 201.746 22.4892 208.303C23.3694 214.861 38.7791 221.067 40.4821 221.791C42.185 222.514 42.5422 223.244 42.3955 224.189C42.2488 225.135 37.6374 225.05 33.785 225.493C29.9326 225.936 25.5444 227.188 26.3672 230.93C27.1899 234.671 36.1959 242.728 58.5132 245.59L68.9415 246.242L74.8094 237.364C86.3412 217.625 85.6523 205.422 83.2924 202.443C80.9325 199.464 77.2586 202.261 74.5288 205.051C71.7989 207.841 69.0308 211.621 68.2016 211.172C67.3725 210.722 67.0408 209.953 67.5191 208.167C67.9975 206.38 72.6855 190.149 68.157 185.397C63.6285 180.645 54.4566 190.938 52.8493 192.033C51.242 193.128 50.6234 191.381 50.719 190.247C50.8147 189.113 51.9373 175.964 52.6325 170.039C53.3277 164.113 52.2179 160.026 48.6716 158.957C45.2593 157.927 42.4529 163.462 40.4183 165.404C38.3836 167.347 36.5276 164.335 36.5276 164.335C36.5276 164.335 33.887 156.056 26.8647 141.683C19.8423 127.309 13.8851 131.377 13.8851 131.377" fill="#EBEBEB"/>
<path d="M69.3619 248.772C64.2594 238.192 55.4639 219.236 47.842 203.004C40.22 186.773 33.3061 172.086 28.2418 161.48L22.2336 148.932L20.6008 145.516C20.4222 145.131 20.2819 144.864 20.1862 144.623C20.0905 144.382 20.0522 144.317 20.0522 144.317C20.0522 144.317 20.1096 144.414 20.2117 144.61L20.6582 145.483L22.3484 148.873C23.809 151.813 25.8947 156.089 28.4459 161.376C33.5485 171.956 40.5134 186.629 48.1354 202.861C55.7573 219.092 64.5081 238.061 69.5724 248.667" fill="#E0E0E0"/>
<path d="M22.3745 178.305C22.6213 178.358 22.8626 178.434 23.0952 178.533C23.5545 178.703 24.2114 178.957 25.0087 179.283C26.6224 179.935 28.8356 180.906 31.2402 182.014L37.4143 184.869L39.2831 185.723C39.5231 185.81 39.7522 185.926 39.9655 186.069C39.7159 186.022 39.472 185.948 39.2384 185.847C38.7792 185.678 38.1286 185.423 37.325 185.084C35.724 184.432 33.498 183.422 31.1126 182.314L24.9258 179.498L23.0506 178.657C22.8101 178.573 22.5825 178.454 22.3745 178.305Z" fill="#E0E0E0"/>
<path d="M40.6986 185.403C40.6157 185.371 42.3633 180.638 44.5957 174.83C46.8281 169.022 48.7096 164.355 48.7734 164.355C48.8372 164.355 47.1087 169.12 44.8763 174.928C42.644 180.736 40.7815 185.436 40.6986 185.403Z" fill="#E0E0E0"/>
<path d="M51.3247 210.872C51.4488 210.64 51.5963 210.421 51.7648 210.22L53.0404 208.525C54.1247 207.091 55.5917 205.103 57.1671 202.854C58.7425 200.605 60.0756 198.519 61.0387 196.987L62.1804 195.188C62.304 194.952 62.4561 194.733 62.6332 194.536C62.5419 194.782 62.4265 195.018 62.2888 195.24C62.0464 195.683 61.6892 196.322 61.23 197.098C60.3179 198.649 58.9977 200.761 57.4031 203.017C55.8086 205.272 54.3225 207.241 53.1999 208.636C52.6322 209.333 52.1666 209.888 51.835 210.266C51.6873 210.486 51.5162 210.69 51.3247 210.872Z" fill="#E0E0E0"/>
<path d="M33.3447 208.18C33.5822 208.155 33.8216 208.155 34.0591 208.18L35.9725 208.388C37.599 208.584 39.8441 208.871 42.3507 209.21C44.8573 209.549 47.0642 209.862 48.6779 210.122L50.5913 210.435C50.8283 210.459 51.0616 210.512 51.2865 210.592C51.0502 210.614 50.812 210.603 50.5786 210.559L48.6651 210.35C47.0451 210.161 44.7999 209.875 42.3252 209.536C39.8505 209.197 37.6117 208.884 35.9917 208.623L34.0782 208.31C33.8294 208.298 33.583 208.254 33.3447 208.18Z" fill="#E0E0E0"/>
<path d="M39.9146 231.882C40.2193 231.865 40.5249 231.88 40.8266 231.927L43.295 232.188C45.3807 232.423 48.2572 232.768 51.4335 233.172C54.6099 233.576 57.4864 233.954 59.5593 234.248L62.0213 234.613C62.3241 234.64 62.6234 234.699 62.9143 234.789C62.6093 234.801 62.3039 234.783 62.0022 234.737L59.5338 234.476C57.4482 234.248 54.5716 233.902 51.3953 233.498C48.2189 233.094 45.3488 232.716 43.2695 232.423L40.8139 232.058C40.5097 232.025 40.2089 231.966 39.9146 231.882Z" fill="#E0E0E0"/>
<path d="M62.3853 234.561C62.5379 234.266 62.7173 233.987 62.921 233.727C63.3228 233.159 63.8459 232.423 64.4709 231.517C65.7466 229.652 67.5707 227.064 69.4778 224.157C71.3849 221.25 73.0432 218.571 74.2295 216.622L75.6327 214.314C75.7958 214.025 75.9792 213.748 76.1813 213.486C76.0636 213.798 75.9162 214.097 75.7412 214.379C75.4414 214.946 74.9949 215.755 74.4209 216.745C73.2856 218.701 71.6528 221.426 69.7457 224.34C67.8386 227.253 66.0144 229.822 64.6431 231.66C63.967 232.573 63.4058 233.309 63.0103 233.805C62.8239 234.075 62.6147 234.328 62.3853 234.561Z" fill="#E0E0E0"/>
<path d="M182.575 213.897C166.393 205.729 160.194 186.857 158.178 169.348C157.84 166.421 157.075 163.403 158.044 160.646C159.014 157.888 161.916 155.646 164.646 156.474C166.916 157.165 168.211 159.531 169.697 161.428C171.695 163.952 174.347 165.849 177.351 166.904C179.303 167.555 181.637 167.823 183.276 166.539C185.521 164.772 185.298 161.258 184.845 158.371L182.332 142.191C181.886 139.304 181.439 136.325 181.911 133.469C182.383 130.614 183.946 127.733 186.523 126.547C189.1 125.36 192.665 126.423 193.66 129.154C194.068 130.295 194.017 131.553 194.298 132.739C194.578 133.926 195.299 135.171 196.466 135.347C197.634 135.523 198.66 134.512 199.375 133.535C201.862 130.164 203.285 126.09 204.579 122.062C205.874 118.033 207.131 113.92 209.28 110.328C211.43 106.736 214.746 103.64 218.764 102.773C222.783 101.906 227.483 103.797 229.116 107.701C230.749 111.606 229.04 116.117 226.992 119.813C223.966 125.296 220.178 130.302 215.748 134.675C214.95 135.458 214.089 136.312 213.911 137.433C213.579 139.46 215.652 141.096 217.61 141.442C219.83 141.833 222.075 141.253 224.333 141.174C226.59 141.096 229.116 141.716 230.264 143.717C231.865 146.494 229.907 149.968 227.828 152.374C223.661 157.197 218.711 161.25 213.196 164.355C211.225 165.456 209.14 166.48 207.686 168.266C206.231 170.052 205.6 172.777 206.92 174.654C208.24 176.532 210.938 176.786 213.056 176.036C215.174 175.287 216.947 173.768 218.905 172.647C222.572 170.541 227.637 170.039 230.641 173.077C232.611 175.085 233.224 178.207 232.796 181.023C232.369 183.839 231.036 186.427 229.569 188.845C224.467 197.32 217.368 204.549 208.821 209.151C200.274 213.753 192.04 215.852 182.575 213.897Z" fill="#F5F5F5"/>
<path d="M185.35 202.287C186.768 192.36 188.742 182.525 191.262 172.829C191.921 170.248 192.559 167.701 193.176 165.189C193.813 162.68 194.451 160.196 195.223 157.804C196.707 153.211 198.44 148.706 200.415 144.31C202.271 140.099 204.178 136.175 205.989 132.518C207.801 128.861 209.568 125.491 211.302 122.486C214.02 117.729 217.104 113.202 220.525 108.947C221.731 107.441 222.7 106.3 223.37 105.537C223.695 105.179 223.944 104.885 224.135 104.677C224.218 104.575 224.31 104.481 224.41 104.396C224.341 104.51 224.262 104.617 224.174 104.716L223.446 105.609C222.809 106.398 221.865 107.565 220.685 109.077C217.347 113.377 214.326 117.924 211.647 122.681C209.944 125.693 208.203 129.07 206.404 132.727C204.605 136.384 202.717 140.314 200.88 144.519C198.931 148.904 197.215 153.393 195.74 157.967C194.974 160.346 194.349 162.817 193.705 165.326C193.061 167.836 192.429 170.391 191.792 172.966C189.276 182.647 187.292 192.465 185.847 202.372" fill="#E0E0E0"/>
<path d="M195.395 157.745C195.197 157.367 195.043 156.967 194.936 156.552C194.668 155.777 194.298 154.642 193.902 153.234C193.073 150.412 192.059 146.481 190.956 142.153C189.852 137.824 188.787 133.906 187.92 131.11C187.486 129.708 187.129 128.581 186.867 127.798C186.714 127.395 186.605 126.975 186.542 126.547C186.762 126.91 186.942 127.297 187.078 127.701C187.397 128.457 187.811 129.572 188.29 130.96C189.253 133.737 190.382 137.642 191.479 141.99C192.576 146.338 193.526 150.144 194.272 153.11C194.617 154.447 194.91 155.568 195.14 156.474C195.268 156.887 195.354 157.313 195.395 157.745Z" fill="#E0E0E0"/>
<path d="M230.749 145.138C230.285 145.312 229.807 145.445 229.321 145.535C228.402 145.77 227.069 146.096 225.43 146.552C222.151 147.439 217.668 148.821 212.782 150.574C207.896 152.328 203.546 154.114 200.434 155.502C198.878 156.154 197.627 156.767 196.76 157.165C196.323 157.4 195.866 157.594 195.395 157.745C195.796 157.448 196.223 157.19 196.671 156.976C197.513 156.519 198.737 155.874 200.287 155.15C203.368 153.671 207.711 151.826 212.61 150.059C216.794 148.535 221.052 147.23 225.366 146.148C227.018 145.744 228.37 145.496 229.308 145.307C229.782 145.202 230.264 145.146 230.749 145.138Z" fill="#E0E0E0"/>
<path d="M185.694 201.511C185.576 201.384 185.471 201.245 185.382 201.094C185.158 200.755 184.884 200.345 184.559 199.843C183.845 198.761 182.862 197.157 181.67 195.162C179.278 191.173 176.146 185.56 172.772 179.315C169.398 173.071 166.317 167.438 164.015 163.403L161.272 158.638L160.532 157.335C160.435 157.187 160.358 157.027 160.303 156.859C160.427 156.982 160.534 157.123 160.622 157.276L161.444 158.521C162.152 159.61 163.141 161.213 164.334 163.208C166.726 167.191 169.857 172.81 173.231 179.055C176.605 185.3 179.68 190.932 181.989 194.967L184.731 199.732C185.025 200.253 185.267 200.684 185.471 201.036C185.568 201.182 185.644 201.342 185.694 201.511Z" fill="#E0E0E0"/>
<path d="M231.681 178.09C231.54 178.198 231.388 178.29 231.228 178.364C230.871 178.553 230.431 178.787 229.895 179.061L224.971 181.584C220.819 183.715 215.11 186.721 208.809 190.058C202.507 193.396 196.748 196.342 192.564 198.382C190.465 199.406 188.737 200.214 187.563 200.749L186.192 201.355C186.034 201.436 185.867 201.497 185.694 201.537C185.83 201.421 185.983 201.326 186.147 201.257L187.48 200.56L192.398 198.037C196.556 195.912 202.265 192.9 208.566 189.563C214.868 186.225 220.608 183.259 224.812 181.238C226.91 180.215 228.639 179.407 229.806 178.872L231.183 178.266C231.34 178.183 231.508 178.124 231.681 178.09Z" fill="#E0E0E0"/>
<path d="M36.3811 16.3815C37.6694 16.2039 38.9795 16.2948 40.2325 16.6489C41.4855 17.0029 42.6553 17.6127 43.6713 18.4414C45.6907 20.1167 47.3057 22.2446 48.3912 24.6602C50.6172 29.2233 50.9424 35.1422 50.5661 40.2463C45.0554 39.4315 40.782 34.4773 38.7665 31.8307C35.5774 27.6392 32.3245 18.0959 36.3938 16.3489" fill="#F5F5F5"/>
<path d="M59.1059 44.6008C58.0947 43.5368 57.3763 42.2187 57.0235 40.7799C56.6707 39.3411 56.696 37.8325 57.0968 36.4069C57.5238 34.9891 58.2224 33.6722 59.1521 32.5329C60.0817 31.3937 61.2238 30.4548 62.5119 29.7709C63.6855 29.119 65.1078 28.6562 66.3388 29.1777C66.9045 29.4554 67.3869 29.8831 67.7358 30.4163C68.0847 30.9494 68.2873 31.5685 68.3224 32.2089C68.3755 33.4944 68.0961 34.7715 67.5124 35.9115C65.6946 39.8813 63.2262 43.3884 59.0996 44.6008" fill="#F5F5F5"/>
<path d="M61.1852 57.2471C60.6567 56.2558 60.2292 55.2117 59.9095 54.1312C59.5099 52.9612 59.2487 51.7467 59.1314 50.5133C58.9437 49.0196 58.8521 47.5149 58.8571 46.0089C58.8732 43.2368 59.559 40.5117 60.8535 38.0757C61.2572 37.3531 61.7339 36.6758 62.2758 36.0549C62.6777 35.6247 62.9137 35.4031 62.9455 35.4422C62.9774 35.4813 62.1291 36.4395 61.1979 38.2713C60.0475 40.6872 59.4396 43.3352 59.4184 46.0219C59.4136 47.5049 59.4903 48.987 59.648 50.4611C59.7408 51.6625 59.9545 52.8508 60.2858 54.0073C60.6601 55.0642 60.9606 56.1468 61.1852 57.2471Z" fill="#E0E0E0"/>
<path d="M39.4995 23.3892C39.8835 23.8051 40.2314 24.2544 40.5392 24.732C41.177 25.6185 42.0954 26.9092 43.2116 28.5128C45.4376 31.7265 48.4736 36.2048 51.701 41.2307C54.9283 46.2566 57.722 50.8979 59.6737 54.268C60.6559 55.9629 61.4277 57.3513 61.9443 58.3161C62.2383 58.8044 62.4922 59.3168 62.7033 59.848C62.3466 59.405 62.0306 58.9293 61.7594 58.4269L59.3356 54.4766C57.301 51.1391 54.45 46.5434 51.229 41.5175L42.8863 28.767L40.3351 24.8559C40.0126 24.3945 39.7328 23.9035 39.4995 23.3892Z" fill="#E0E0E0"/>
<path d="M54.8266 49.7569C52.4735 47.7573 49.688 46.3596 46.701 45.6794C43.714 44.9992 40.6114 45.0562 37.6502 45.8457C36.1449 46.2629 34.4611 47.1494 34.2825 48.7139C34.1039 50.2784 35.5071 51.5756 36.8848 52.3187C39.78 53.8259 43.047 54.4235 46.2739 54.036C49.5009 53.6486 52.5434 52.2935 55.018 50.1415" fill="#F5F5F5"/>
<path d="M41.2979 48.6226C41.5696 48.5056 41.8584 48.4351 42.1525 48.414C42.7138 48.3097 43.5238 48.212 44.538 48.1142C47.1875 47.8498 49.862 48.0862 52.4278 48.8117C53.8412 49.2528 55.1747 49.9265 56.3759 50.8064C57.3389 51.5348 58.1976 52.397 58.9271 53.3682C59.4276 54.012 59.8655 54.7041 60.2347 55.4346C60.396 55.6894 60.5166 55.9689 60.5918 56.2625C60.4898 56.3212 59.9094 55.1804 58.621 53.6225C56.9459 51.5976 54.7293 50.116 52.2428 49.3592C49.7346 48.662 47.1337 48.3781 44.538 48.5183C43.4609 48.6192 42.379 48.654 41.2979 48.6226Z" fill="#E0E0E0"/>
<path d="M200.002 38.3324L194.613 56.9609C194.116 58.6802 195.077 60.486 196.759 60.9943L214.986 66.5018C216.668 67.0101 218.435 66.0283 218.933 64.309L224.321 45.6805C224.819 43.9612 223.858 42.1553 222.176 41.647L203.949 36.1396C202.266 35.6313 200.5 36.613 200.002 38.3324Z" fill="#455A64"/>
<path d="M215.002 58.8051C215.01 58.73 215.025 58.6558 215.046 58.5835L215.199 57.9773L215.805 55.7088L217.999 47.6713L218.082 47.8277L203.961 43.721L204.146 43.6167V43.6623V43.7601L204.095 43.9491L203.987 44.3207L203.763 45.0638C203.623 45.5592 203.483 46.0481 203.349 46.5305L202.488 49.4052C201.958 51.2631 201.454 53.0426 200.989 54.7049L200.893 54.5354L211.034 57.5796L213.924 58.4662L214.702 58.7074L214.976 58.8051L214.721 58.7465L213.962 58.5444L211.079 57.7361L200.817 54.8027L200.683 54.7636L200.721 54.6267C201.186 52.9644 201.678 51.1848 202.201 49.3205C202.462 48.3883 202.724 47.4301 202.998 46.4588C203.132 45.9764 203.272 45.4875 203.406 44.9921L203.617 44.249L203.725 43.8709L203.776 43.6884V43.5906V43.545L203.967 43.4407L218.076 47.5996L218.197 47.6387L218.165 47.7625C217.196 51.1131 216.392 53.8901 215.824 55.8652C215.544 56.8039 215.327 57.5536 215.187 58.0881C215.11 58.3228 215.053 58.5118 215.008 58.6617C215.009 58.7096 215.006 58.7575 215.002 58.8051Z" fill="#FAFAFA"/>
<path d="M209.338 42.789C209.77 42.8486 210.196 42.9423 210.614 43.0694C211.405 43.2779 212.527 43.5843 213.86 43.9624H213.93V44.0406C214.128 44.8163 214.345 45.6573 214.568 46.5438L214.638 46.8045L214.383 46.7263L213.044 46.3352C210.818 45.6833 208.802 45.0771 207.335 44.6208L207.15 44.5621L207.291 44.4317C208.477 43.3171 209.274 42.6717 209.332 42.7695C209.332 42.7695 209.14 42.9259 208.809 43.2388L207.437 44.5947L207.393 44.4057C208.879 44.8098 210.901 45.3835 213.133 46.0353L214.473 46.433L214.281 46.6155L213.643 44.1123L213.739 44.2101C212.412 43.8125 211.303 43.4605 210.55 43.2128C210.134 43.1089 209.729 42.9671 209.338 42.789Z" fill="#FAFAFA"/>
<path d="M212.119 53.0228C212.119 53.0228 212.272 52.762 212.451 52.2535C212.694 51.5356 212.694 50.7551 212.451 50.0372C212.265 49.4547 211.924 48.9364 211.467 48.5403C211.01 48.1441 210.454 47.8857 209.861 47.7939C209.268 47.7021 208.662 47.7805 208.111 48.0203C207.559 48.2602 207.083 48.652 206.737 49.1521C206.391 49.6522 206.187 50.2409 206.149 50.8524C206.111 51.4638 206.24 52.0741 206.522 52.6149C206.804 53.1557 207.227 53.6058 207.745 53.915C208.262 54.2241 208.854 54.3801 209.453 54.3656C210.197 54.3489 210.915 54.0807 211.494 53.6029C211.902 53.2639 212.068 53.0032 212.094 53.0228C212.068 53.0935 212.032 53.1595 211.985 53.2183C211.866 53.3931 211.727 53.5528 211.571 53.6942C210.991 54.2361 210.244 54.5523 209.46 54.5872C208.876 54.613 208.295 54.4886 207.77 54.2256C207.245 53.9625 206.793 53.5691 206.455 53.0814C206.05 52.5003 205.828 51.8068 205.818 51.0932C205.798 50.3273 206.022 49.5754 206.455 48.9503C206.889 48.3251 207.509 47.8603 208.222 47.6253C208.663 47.4743 209.13 47.4155 209.593 47.4523C210.057 47.4892 210.509 47.621 210.922 47.84C211.335 48.0589 211.701 48.3605 211.997 48.7267C212.294 49.093 212.515 49.5165 212.649 49.972C212.877 50.7377 212.836 51.5608 212.534 52.2992C212.454 52.4978 212.351 52.686 212.228 52.8598C212.177 52.9771 212.126 53.0293 212.119 53.0228Z" fill="#FAFAFA"/>
<path d="M44.1593 74.6823L17.3592 80.5443C15.165 81.0243 13.7669 83.2312 14.2365 85.4738L19.9722 112.864C20.4418 115.107 22.6012 116.536 24.7954 116.056L51.5955 110.194C53.7897 109.714 55.1878 107.507 54.7182 105.264L48.9825 77.8738C48.5129 75.6313 46.3535 74.2024 44.1593 74.6823Z" fill="#2585EC"/>
<path d="M29.6394 87.0567C29.86 87.1274 30.0735 87.219 30.2773 87.3305L32.0631 88.204H32.1333L32.095 88.2822C31.5082 89.3969 30.7237 90.8897 29.7798 92.6497L29.7415 92.4802L38.4413 98.184L38.1862 98.2427C38.9261 96.939 39.7106 95.5766 40.5142 94.1555L40.5908 94.0316L40.7247 94.0642C41.8351 94.3454 42.9065 94.7681 43.9138 95.3224C45.0143 95.874 45.9275 96.7506 46.5352 97.8386C46.6734 98.1311 46.768 98.4431 46.8159 98.7642L46.886 99.2531L46.8478 99.7485C46.8226 100.077 46.7495 100.4 46.6309 100.707C46.5424 101.02 46.4182 101.322 46.261 101.606C45.6604 102.798 44.6824 103.747 43.4865 104.299C42.2845 104.842 40.945 104.984 39.6595 104.703C39.0359 104.57 38.433 104.35 37.8673 104.051C37.306 103.751 36.8213 103.399 36.3046 103.073L30.4814 99.2727L25.2194 95.8178L24.0011 95.0225C23.5938 94.7747 23.2114 94.4865 22.8594 94.162C22.5214 93.8492 22.2476 93.4708 22.0538 93.049C21.86 92.6271 21.7501 92.1701 21.7305 91.7045C21.7195 90.9139 21.8863 90.1313 22.218 89.417C22.5498 88.7027 23.0376 88.0758 23.6439 87.5847C24.5493 86.8327 25.6675 86.3984 26.833 86.3462C27.5579 86.3071 28.2829 86.4202 28.9633 86.6786C29.1383 86.7454 29.3087 86.8238 29.4736 86.9133C29.533 86.938 29.5887 86.9709 29.6394 87.0111C28.7552 86.63 27.7975 86.4605 26.8394 86.5156C25.7232 86.5936 24.6601 87.0319 23.8034 87.7672C23.2411 88.2415 22.7911 88.8398 22.4874 89.5172C22.1836 90.1945 22.0339 90.9334 22.0494 91.6784C22.0681 92.112 22.1727 92.5372 22.3569 92.9282C22.5411 93.3193 22.801 93.668 23.1209 93.9534C23.4642 94.2611 23.8359 94.534 24.2307 94.7683L25.449 95.5505L30.7301 98.9663L36.5661 102.747C37.0764 103.073 37.5803 103.432 38.0969 103.705C38.6289 103.981 39.1955 104.181 39.7807 104.299C40.9745 104.556 42.2172 104.424 43.3334 103.92C44.4366 103.409 45.3365 102.528 45.8847 101.424C46.0285 101.157 46.144 100.875 46.2291 100.583C46.3353 100.307 46.4019 100.018 46.4268 99.7224L46.4651 99.2857L46.4013 98.862C46.3603 98.5767 46.2764 98.2997 46.1525 98.0406C45.5839 97.0298 44.7334 96.2151 43.7097 95.7004C42.7348 95.1618 41.6977 94.7501 40.6227 94.4749L40.8331 94.3771L38.4796 98.4513L38.3775 98.6208L38.2245 98.5165L29.6394 92.7279L29.5374 92.6627L29.5948 92.5584L31.9994 88.2366V88.3474L30.2773 87.4348C30.0546 87.3274 29.8412 87.2009 29.6394 87.0567Z" fill="#FAFAFA"/>
<path d="M38.7533 91.7242C38.4071 90.7929 38.1674 89.8239 38.039 88.8364C37.7964 87.8689 37.6658 86.8756 37.6499 85.877C37.9931 86.8114 38.2327 87.7822 38.3643 88.7712C38.6032 89.7373 38.7338 90.728 38.7533 91.7242Z" fill="#FAFAFA"/>
<path d="M41.1198 88.1653C40.1903 88.539 39.2236 88.8079 38.2369 88.9671C37.2649 89.2294 36.2687 89.3867 35.2646 89.4364C36.1944 89.0646 37.1611 88.7979 38.1476 88.6412C39.1179 88.3699 40.1148 88.2103 41.1198 88.1653Z" fill="#FAFAFA"/>
<path d="M181.388 27.4373H141.034V87.9108H181.388V27.4373Z" fill="#F5F5F5"/>
<path d="M181.382 87.9106C181.382 87.9106 181.382 87.8063 181.382 87.6108C181.382 87.4152 181.382 87.1284 181.382 86.7568C181.382 85.9941 181.382 84.886 181.382 83.4453C181.382 80.5445 181.382 76.327 181.338 70.9947C181.338 60.3432 181.293 45.246 181.261 27.4371L181.414 27.5935H141.066L141.232 27.424C141.232 50.1741 141.232 71.1707 141.193 87.8976L141.066 87.7607L170.405 87.8324L178.531 87.865H180.668C181.153 87.865 181.408 87.865 181.408 87.865H180.7H178.589L170.488 87.8976L141.059 87.9693H140.925V87.8324C140.925 71.1055 140.925 50.1089 140.894 27.3588V27.2676H141.059H181.408H181.561V27.4631C181.561 45.3112 181.503 60.441 181.484 71.1381C181.484 76.4508 181.484 80.6619 181.446 83.5236C181.446 84.9511 181.446 86.0528 181.446 86.7829C181.446 87.1479 181.446 87.4347 181.446 87.6238C181.446 87.8128 181.382 87.9106 181.382 87.9106Z" fill="#263238"/>
<path d="M144.841 85.6033C143.879 85.1435 143.067 84.412 142.498 83.4951C141.93 82.5783 141.631 81.5144 141.636 80.4292C141.64 79.344 141.949 78.2828 142.525 77.3711C143.101 76.4594 143.92 75.7353 144.886 75.2842C145.26 75.1545 145.596 74.9303 145.862 74.6324C146.219 74.15 146.079 73.4721 146.091 72.8658C146.142 72.0787 146.476 71.3386 147.03 70.7894C147.584 70.2401 148.318 69.9207 149.089 69.8933L158.178 73.5438V83.3217L144.841 85.6033Z" fill="#263238"/>
<path d="M141.518 87.7477C141.518 87.7477 148.273 82.3177 156.564 81.04C164.856 79.7624 174.111 81.04 174.111 81.04C176.636 81.5178 179.076 82.3814 181.35 83.6018L181.394 87.8846L172.465 87.852L141.518 87.7477Z" fill="#2585EC"/>
<path d="M177.568 42.5928C176.7 40.1353 172.593 38.0298 170.335 36.7978C166.961 34.966 163.899 35.494 162.043 37.2541C158.529 34.438 153.937 31.7784 149.657 33.0756C145.377 34.3728 142.003 39.0141 142.953 43.5055C143.502 46.1129 145.371 48.4466 145.352 51.1388C145.352 52.9705 144.446 54.6524 143.744 56.3537C143.043 58.0551 142.526 59.9976 143.253 61.6729C143.936 63.2309 145.53 64.1631 146.442 65.5841C147.169 66.7575 147.374 68.1916 147.852 69.4953C149.638 74.3126 155.353 76.8484 160.289 75.8249C165.226 74.8015 169.219 70.8382 171.432 66.2034C173.645 61.5686 174.238 56.3146 174.34 51.1714" fill="#263238"/>
<path d="M174.15 82.5002L173.977 46.237L159.052 41.5892C157.964 41.4365 156.857 41.5101 155.797 41.8057C154.738 42.1012 153.747 42.6126 152.886 43.3092C152.025 44.0057 151.31 44.8729 150.785 45.8589C150.259 46.8448 149.934 47.929 149.83 49.0465C149.294 54.6656 148.847 61.7318 149.377 65.995C150.416 74.3584 156.622 75.6165 156.622 75.6165C156.622 75.6165 156.571 78.7194 156.507 82.3503C156.47 84.3183 157.066 86.2444 158.204 87.8325H172.447C173.557 86.2868 174.154 84.418 174.15 82.5002Z" fill="#FFBE9D"/>
<path d="M156.623 75.6363C160.461 75.7707 164.263 74.8404 167.625 72.9441C167.625 72.9441 164.71 78.8891 156.584 77.8461L156.623 75.6363Z" fill="#EB996E"/>
<path d="M161.668 49.933C161.77 50.2524 162.899 50.1416 164.219 50.3437C165.54 50.5457 166.586 50.9499 166.771 50.6761C166.853 50.5457 166.675 50.2459 166.254 49.9265C165.694 49.5343 165.052 49.282 164.379 49.1899C163.707 49.0837 163.02 49.144 162.376 49.3659C161.885 49.5484 161.668 49.7896 161.668 49.933Z" fill="#263238"/>
<path d="M151.303 50.572C151.495 50.8392 152.279 50.572 153.217 50.572C154.154 50.572 154.926 50.8067 155.13 50.572C155.213 50.4416 155.098 50.1743 154.76 49.9201C154.308 49.606 153.773 49.438 153.226 49.438C152.679 49.438 152.145 49.606 151.692 49.9201C151.342 50.1743 151.22 50.4416 151.303 50.572Z" fill="#263238"/>
<path d="M161.38 59.3132C161.384 59.3934 161.418 59.4689 161.475 59.5238C161.532 59.5786 161.608 59.6084 161.687 59.6066C161.765 59.6032 161.84 59.5688 161.895 59.5105C161.95 59.4521 161.98 59.3745 161.98 59.2937C161.98 59.2124 161.948 59.1345 161.892 59.077C161.836 59.0196 161.76 58.9873 161.68 58.9873C161.601 58.9873 161.524 59.0196 161.468 59.077C161.412 59.1345 161.38 59.2124 161.38 59.2937V59.3132Z" fill="#EB996E"/>
<path d="M152.916 58.1011C152.91 58.1447 152.913 58.1891 152.925 58.2313C152.937 58.2736 152.958 58.3127 152.986 58.346C153.014 58.3793 153.049 58.406 153.088 58.4243C153.127 58.4426 153.17 58.4521 153.213 58.4521C153.256 58.4521 153.298 58.4426 153.338 58.4243C153.377 58.406 153.412 58.3793 153.44 58.346C153.468 58.3127 153.489 58.2736 153.501 58.2313C153.513 58.1891 153.516 58.1447 153.509 58.1011C153.506 58.0204 153.472 57.9442 153.415 57.8883C153.358 57.8324 153.282 57.8012 153.203 57.8013C153.127 57.8046 153.055 57.8374 153.002 57.8931C152.948 57.9488 152.918 58.0232 152.916 58.1011Z" fill="#EB996E"/>
<path d="M151.296 58.961C151.3 59.0411 151.334 59.1167 151.391 59.1716C151.448 59.2264 151.524 59.2561 151.603 59.2544C151.682 59.2544 151.758 59.2221 151.815 59.1646C151.871 59.1072 151.902 59.0292 151.902 58.948C151.902 58.8667 151.871 58.7888 151.815 58.7313C151.758 58.6739 151.682 58.6416 151.603 58.6416C151.562 58.6416 151.522 58.6499 151.484 58.666C151.446 58.6822 151.412 58.7058 151.384 58.7355C151.355 58.7653 151.333 58.8006 151.318 58.8393C151.303 58.878 151.296 58.9194 151.296 58.961Z" fill="#EB996E"/>
<path d="M150.755 57.7035C150.756 57.7644 150.775 57.8235 150.81 57.8732C150.844 57.923 150.892 57.9611 150.948 57.9829C151.003 58.0047 151.064 58.009 151.122 57.9953C151.18 57.9817 151.233 57.9507 151.273 57.9063C151.314 57.8619 151.341 57.8061 151.351 57.746C151.36 57.686 151.352 57.6244 151.327 57.569C151.302 57.5137 151.262 57.4672 151.211 57.4354C151.16 57.4037 151.101 57.3881 151.042 57.3907C150.964 57.394 150.89 57.4287 150.836 57.4872C150.782 57.5457 150.753 57.6234 150.755 57.7035Z" fill="#EB996E"/>
<path d="M162.79 60.6106C162.791 60.6505 162.799 60.6899 162.815 60.7264C162.831 60.7629 162.854 60.7958 162.882 60.8231C162.911 60.8504 162.945 60.8717 162.981 60.8856C163.018 60.8994 163.057 60.9057 163.096 60.9039C163.155 60.9026 163.213 60.8831 163.262 60.8481C163.311 60.813 163.348 60.764 163.369 60.7071C163.391 60.6503 163.395 60.5883 163.381 60.529C163.368 60.4696 163.338 60.4157 163.294 60.3741C163.251 60.3325 163.196 60.305 163.138 60.2953C163.079 60.2855 163.018 60.2938 162.964 60.3191C162.91 60.3445 162.865 60.3858 162.834 60.4377C162.803 60.4896 162.787 60.5498 162.79 60.6106Z" fill="#EB996E"/>
<path d="M163.861 59.3524C163.863 59.4129 163.884 59.4713 163.919 59.5202C163.954 59.569 164.002 59.6062 164.058 59.6269C164.113 59.6477 164.174 59.6511 164.231 59.6368C164.289 59.6224 164.341 59.5909 164.381 59.5463C164.421 59.5017 164.448 59.446 164.457 59.3861C164.466 59.3263 164.457 59.265 164.432 59.2101C164.407 59.1551 164.367 59.109 164.316 59.0775C164.266 59.0459 164.207 59.0305 164.148 59.033C164.069 59.038 163.995 59.0741 163.942 59.1336C163.888 59.1932 163.859 59.2716 163.861 59.3524Z" fill="#EB996E"/>
<path d="M158.95 40.3181C161.129 38.7457 163.699 37.8375 166.362 37.699C169.026 37.5605 171.673 38.1975 173.996 39.5358C178.62 42.3193 181.14 46.3348 181.382 52.9578V61.3994C181.14 65.2454 181.944 67.4748 180.107 68.1267C177.555 69.0132 175.642 76.0273 173.461 75.5384C170.775 73.4068 170.731 72.1617 170.635 67.8007C170.533 63.1138 169.155 57.5404 170.954 54.5222C165.022 52.7166 160.29 46.915 159.384 40.3246" fill="#263238"/>
<path d="M150.621 32.8153C150.621 32.8609 151.322 32.8609 152.413 33.1152C152.712 33.1823 153.006 33.2694 153.293 33.3759C153.627 33.4833 153.955 33.6095 154.275 33.754C155.005 34.0946 155.7 34.5096 156.348 34.9925C156.989 35.4863 157.579 36.0454 158.109 36.6613C158.338 36.9547 158.574 37.2284 158.746 37.5087C158.925 37.7619 159.089 38.0252 159.238 38.2975C159.799 39.2883 160.003 39.9793 160.041 39.9597C160.009 39.7969 159.962 39.6376 159.901 39.4839C159.845 39.294 159.774 39.1088 159.69 38.9298C159.591 38.6909 159.478 38.4581 159.352 38.2323C159.209 37.9514 159.049 37.6793 158.874 37.4175C158.695 37.1307 158.466 36.8504 158.236 36.544C157.185 35.2615 155.852 34.2517 154.345 33.5975C154.018 33.4539 153.684 33.3277 153.344 33.2195C153.049 33.1254 152.748 33.047 152.445 32.9848C152.194 32.929 151.941 32.8876 151.686 32.8609C151.496 32.832 151.304 32.8167 151.112 32.8153C150.948 32.7982 150.784 32.7982 150.621 32.8153Z" fill="#455A64"/>
<path d="M145.882 64.6196L145.824 64.5544L145.652 64.3523C145.426 64.1054 145.213 63.8465 145.014 63.5766C144.675 63.1616 144.414 62.6866 144.242 62.1751C144.146 61.8569 144.111 61.5226 144.14 61.1908C144.179 60.8214 144.292 60.4642 144.472 60.1413C144.935 59.4114 145.449 58.7165 146.009 58.0618C147.261 56.3507 148.031 54.3217 148.235 52.1951C148.324 51.0061 148.324 49.8118 148.235 48.6228C148.139 47.4458 148.205 46.2608 148.433 45.1028C148.683 44.0893 149.148 43.1441 149.794 42.3333C150.439 41.5226 151.25 40.8659 152.17 40.4093C152.932 40.0355 153.757 39.8142 154.601 39.7575C155.83 39.662 157.063 39.8862 158.185 40.4093C158.486 40.5576 158.778 40.7253 159.059 40.9113L159.276 41.0547C159.327 41.0547 159.352 41.1068 159.352 41.1003C159.008 40.7978 158.627 40.5435 158.217 40.3441C157.094 39.7772 155.845 39.5209 154.594 39.601C153.729 39.6486 152.882 39.8701 152.1 40.2529C151.161 40.7202 150.332 41.3908 149.671 42.2181C149.01 43.0454 148.533 44.0097 148.273 45.0441C148.033 46.2179 147.962 47.4215 148.063 48.6163C148.153 49.7962 148.164 50.9811 148.095 52.1625C147.894 54.258 147.145 56.2597 145.926 57.9575C145.366 58.6197 144.854 59.3235 144.396 60.0631C144.209 60.4048 144.094 60.782 144.057 61.1712C144.033 61.5177 144.076 61.8656 144.185 62.1947C144.365 62.7143 144.64 63.1943 144.995 63.6092C145.276 63.9547 145.518 64.2024 145.678 64.3654L145.869 64.5544L145.882 64.6196Z" fill="#455A64"/>
<path d="M151.316 55.6762C151.437 55.8196 152.241 55.2394 153.357 55.2655C154.473 55.2916 155.271 55.8783 155.411 55.7414C155.551 55.6045 155.347 55.4285 154.996 55.1547C154.52 54.7997 153.947 54.606 153.357 54.6006C152.774 54.5845 152.202 54.7605 151.724 55.1026C151.373 55.3633 151.252 55.611 151.316 55.6762Z" fill="#263238"/>
<path d="M162.752 55.8652C162.879 56.0021 163.676 55.4219 164.799 55.448C165.922 55.4741 166.712 56.0673 166.853 55.9304C166.993 55.7935 166.789 55.611 166.432 55.3372C165.954 54.9861 165.381 54.7948 164.793 54.7896C164.209 54.7712 163.636 54.9474 163.16 55.2916C162.809 55.5523 162.688 55.8 162.752 55.8652Z" fill="#263238"/>
<path d="M158.523 62.7684C157.937 62.5678 157.328 62.443 156.712 62.3969C156.425 62.3643 156.157 62.2991 156.112 62.097C156.095 61.795 156.168 61.4946 156.323 61.2366C156.603 60.5325 156.897 59.7959 157.209 59.0267C158.447 55.8847 159.346 53.2968 159.218 53.2447C159.091 53.1925 157.994 55.7022 156.756 58.8507C156.463 59.6265 156.176 60.3631 155.902 61.0736C155.715 61.4214 155.656 61.8261 155.736 62.2144C155.774 62.3183 155.836 62.4118 155.916 62.4876C155.995 62.5633 156.091 62.6193 156.195 62.6511C156.353 62.696 156.516 62.7222 156.68 62.7293C157.29 62.8221 157.91 62.8353 158.523 62.7684Z" fill="#263238"/>
<path d="M158.943 65.5387C159.162 65.269 159.444 65.0605 159.763 64.9328C160.082 64.8051 160.428 64.7624 160.768 64.8086C161.017 64.8342 161.259 64.9115 161.478 65.0359C161.698 65.1604 161.89 65.3292 162.043 65.5322C162.189 65.7254 162.273 65.9596 162.284 66.2032C162.296 66.4468 162.234 66.6881 162.107 66.8946C161.924 67.0975 161.686 67.2395 161.423 67.3023C161.161 67.365 160.885 67.3457 160.634 67.2466C160.107 67.0475 159.625 66.7415 159.218 66.347C159.093 66.2535 158.987 66.1362 158.905 66.0016C158.863 65.938 158.841 65.8631 158.841 65.7864C158.841 65.7098 158.863 65.6349 158.905 65.5713" fill="#2585EC"/>
<path d="M161.802 63.6285C161.623 63.6285 161.597 64.854 160.526 65.7145C159.454 66.5749 158.179 66.412 158.166 66.588C158.166 66.6662 158.447 66.8357 158.995 66.8618C159.706 66.8862 160.404 66.6556 160.966 66.2099C161.503 65.7774 161.855 65.1488 161.948 64.4564C162.018 63.9675 161.884 63.622 161.802 63.6285Z" fill="#263238"/>
<path d="M180.974 50.6369C180.672 50.738 180.36 50.8058 180.043 50.839C179.181 50.9669 178.311 51.0279 177.441 51.0215C174.553 51.0121 171.706 50.3296 169.115 49.0261C166.524 47.7225 164.259 45.8322 162.49 43.499C161.956 42.7982 161.474 42.0573 161.049 41.2827C160.885 41.005 160.746 40.7126 160.634 40.4092C160.832 40.6634 161.009 40.9337 161.164 41.2175C161.624 41.959 162.129 42.6709 162.675 43.3491C164.466 45.605 166.714 47.4374 169.264 48.7203C171.814 50.0032 174.606 50.706 177.447 50.7804C178.298 50.8088 179.15 50.7849 179.998 50.7087C180.321 50.6582 180.648 50.6342 180.974 50.6369Z" fill="#455A64"/>
<path d="M178.741 69.1826C178.741 69.1826 179.099 68.7458 179.653 67.8789C180.421 66.6714 180.937 65.3158 181.171 63.896C181.484 61.7807 181.076 59.62 180.017 57.775C179.402 56.6918 178.595 55.7347 177.638 54.9524C176.59 54.1356 175.415 53.5053 174.162 53.088C172.886 52.6122 171.611 52.2537 170.367 51.7843C169.187 51.3439 168.063 50.7619 167.018 50.0504C165.258 48.8356 163.742 47.2865 162.554 45.4873C161.742 44.2802 161.098 42.9639 160.64 41.5761C160.513 41.2023 160.406 40.8215 160.321 40.4353C160.286 40.3005 160.261 40.1632 160.245 40.0247C160.283 40.0247 160.404 40.5722 160.761 41.5305C161.995 44.904 164.244 47.791 167.184 49.7766C168.215 50.467 169.322 51.0314 170.482 51.4584C171.681 51.9147 172.975 52.2732 174.277 52.7621C175.564 53.2041 176.77 53.8653 177.842 54.7177C178.828 55.5295 179.655 56.5248 180.278 57.6511C181.361 59.5565 181.758 61.7884 181.401 63.9612C181.144 65.4059 180.583 66.7762 179.755 67.9766C179.535 68.3029 179.292 68.6123 179.028 68.9023C178.943 69.006 178.847 69.0999 178.741 69.1826Z" fill="#455A64"/>
<path d="M156.622 75.636C156.622 75.636 156.476 75.7142 156.195 75.7729C155.789 75.8484 155.376 75.879 154.964 75.8642C153.6 75.772 152.282 75.3231 151.137 74.5604C149.978 73.8102 149.051 72.7386 148.465 71.4706C148.29 71.0923 148.153 70.697 148.056 70.2907C148.008 70.1418 147.988 69.9845 147.999 69.8279C148.056 69.8279 148.203 70.4797 148.675 71.3663C149.295 72.5524 150.204 73.5541 151.316 74.2736C152.429 74.9904 153.688 75.4364 154.996 75.5773C155.985 75.7012 156.616 75.5773 156.622 75.636Z" fill="#455A64"/>
<path d="M164.543 110.42C162.859 107.812 161.762 97.1801 159.574 97.7798C156.781 98.536 160.703 109.859 160.978 110.895C161.252 111.932 159.785 112.329 159.587 111.384C159.307 110.022 156.181 96.7238 153.458 97.7407C151.946 98.3078 152.916 101.124 152.916 101.124C152.916 101.124 157.342 114.063 156.041 114.494C154.74 114.924 152.214 107.382 151.353 104.716C150.543 102.154 149.197 101.424 148.266 102.623C147.335 103.823 149.676 111.554 150.441 114.161C151.206 116.769 153.439 123.789 149.561 121.156C145.683 118.522 141.747 117.949 140.593 118.548C139.439 119.148 139.866 120.993 141.288 121.234C142.806 121.655 144.26 122.285 145.613 123.105C146.685 123.777 147.68 124.571 148.578 125.471C149.766 126.586 150.764 127.894 151.532 129.343C152.156 130.48 153.008 131.469 154.032 132.245C155.057 133.021 156.23 133.568 157.476 133.848L158.643 138.717L171.903 133.672L169.697 124.467C167.949 117.44 167.879 112.408 167.477 108.053C166.839 101.104 165.946 101.137 165.175 101.391C163.484 101.913 166.189 112.942 164.543 110.42Z" fill="#FFBE9D"/>
<path d="M166.968 119.376C166.365 119.667 165.783 120 165.226 120.374C163.924 121.341 162.962 122.713 162.484 124.285C162.34 124.758 162.246 125.245 162.203 125.738V125.973L161.999 125.875C160.84 125.34 159.604 125.003 158.338 124.878C157.388 124.78 156.814 124.813 156.807 124.767C157.312 124.645 157.834 124.61 158.351 124.663C159.656 124.724 160.939 125.034 162.133 125.575L161.903 125.712C161.945 125.193 162.041 124.679 162.19 124.18C162.463 123.29 162.896 122.458 163.466 121.729C163.933 121.136 164.488 120.621 165.112 120.204C165.533 119.937 165.982 119.718 166.451 119.552C166.611 119.462 166.786 119.403 166.968 119.376Z" fill="#EB996E"/>
<path d="M167.714 129.682C165.866 131.237 163.604 132.188 161.221 132.413C161.221 132.316 162.752 131.983 164.544 131.214C166.337 130.445 167.657 129.597 167.714 129.682Z" fill="#EB996E"/>
<path d="M171.579 197.678C168.658 197.391 165.892 196.199 163.651 194.262L142.252 175.775L142.444 197.085L146.685 197.398L145.493 213.244H79.2424V212.866C75.1667 209.32 72.6601 203.975 71.7735 198.141C70.1598 187.594 69.5603 170.404 68.1188 158.253C67.1111 149.701 68.9544 138.625 76.4105 134.584L82.1508 132.27L100.252 124.982L123.507 126.077L139.031 130.529C143.337 132.198 147.049 137.472 149.696 141.357L162.637 159.759C162.497 156.754 157.139 138.619 156.788 137.804L172.606 131.109C172.606 131.109 188.928 168.175 186.734 184.191C184.903 197.535 171.579 197.678 171.579 197.678Z" fill="#263238"/>
<path d="M140.715 167.953C140.715 167.855 142.163 168.051 144.427 167.712C147.32 167.3 150.053 166.11 152.349 164.264C154.486 162.493 156.043 160.099 156.813 157.399C157.065 156.304 157.251 155.194 157.368 154.075C157.457 154.37 157.489 154.68 157.464 154.988C157.467 155.826 157.371 156.663 157.177 157.478C156.496 160.294 154.927 162.802 152.712 164.616C150.344 166.531 147.494 167.722 144.491 168.051C143.57 168.158 142.641 168.178 141.716 168.11C141.377 168.104 141.04 168.051 140.715 167.953Z" fill="white"/>
<path d="M142.424 197.398C142.584 197.398 142.762 188.422 142.833 177.36C142.903 166.298 142.833 157.315 142.679 157.308C142.526 157.302 142.348 166.278 142.271 177.347C142.195 188.415 142.271 197.392 142.424 197.398Z" fill="#455A64"/>
<path d="M86.7041 204.002C86.8033 203.237 87.0482 202.499 87.4248 201.831C88.2424 200.169 89.3767 198.69 90.7612 197.482C92.1457 196.274 93.7523 195.362 95.4869 194.797C96.1902 194.52 96.9401 194.387 97.6937 194.406C97.6937 194.491 96.8773 194.66 95.6144 195.156C92.3015 196.45 89.5263 198.872 87.7565 202.013C87.0804 203.213 86.787 204.028 86.7041 204.002Z" fill="#455A64"/>
<path d="M94.5171 174.38C94.6055 174.409 94.6909 174.446 94.7722 174.491L95.4802 174.876C96.3998 175.346 97.3478 175.755 98.3185 176.101C101.893 177.382 105.726 177.718 109.461 177.079C115.01 176.061 119.966 172.907 123.308 168.266C125.304 165.587 126.556 162.407 126.931 159.061C127.116 157.304 126.936 155.527 126.402 153.847C125.841 152.128 124.854 150.588 123.538 149.375C122.251 148.13 120.621 147.32 118.869 147.054C118.041 146.901 117.19 146.942 116.38 147.175C115.57 147.408 114.822 147.826 114.194 148.397C113.91 148.678 113.683 149.015 113.526 149.386C113.37 149.757 113.287 150.157 113.282 150.561C113.298 151.369 113.566 152.15 114.047 152.791C115.063 154.028 116.517 154.804 118.091 154.948C121.046 155.343 124.05 154.903 126.778 153.677C128.96 152.734 130.912 151.31 132.494 149.507C134.076 147.704 135.25 145.567 135.931 143.247C136.408 141.662 136.664 140.016 136.69 138.358C136.7 137.309 136.626 136.26 136.466 135.223C136.409 134.897 136.358 134.63 136.32 134.421C136.294 134.33 136.283 134.235 136.288 134.141C136.725 135.501 136.94 136.926 136.926 138.358C136.938 140.041 136.71 141.716 136.249 143.332C135.646 145.483 134.631 147.49 133.265 149.238C131.448 151.502 129.101 153.26 126.441 154.349C123.782 155.439 120.896 155.824 118.053 155.47C116.346 155.314 114.77 154.472 113.671 153.129C113.12 152.4 112.814 151.508 112.797 150.587C112.802 149.638 113.173 148.729 113.83 148.058C114.514 147.429 115.328 146.967 116.212 146.707C117.096 146.448 118.027 146.397 118.933 146.559C120.791 146.839 122.52 147.695 123.889 149.01C125.271 150.288 126.308 151.909 126.899 153.716C127.454 155.466 127.639 157.317 127.441 159.146C127.054 162.584 125.757 165.85 123.691 168.592C120.857 172.543 116.834 175.438 112.239 176.832C107.643 178.227 102.727 178.046 98.2419 176.316C96.9237 175.838 95.6716 175.187 94.5171 174.38Z" fill="white"/>
<path d="M68.4819 163.99C68.6538 163.683 68.8687 163.404 69.1198 163.162C69.7703 162.454 70.4882 161.814 71.2628 161.252C73.8691 159.417 76.9031 158.317 80.0583 158.064C81.7857 157.868 83.5322 157.943 85.2374 158.286C86.6252 158.579 87.9682 159.061 89.2301 159.72C90.0781 160.157 90.8907 160.663 91.6602 161.232C91.9553 161.422 92.2235 161.652 92.4575 161.917C92.4001 162.008 91.1819 161.089 89.0707 160.072C86.2835 158.751 83.1931 158.243 80.1412 158.605C77.07 158.86 74.1059 159.876 71.5052 161.565C69.528 162.907 68.5457 164.068 68.4819 163.99Z" fill="white"/>
<path d="M74.8413 136.142C75.805 137.069 76.8759 137.873 78.0304 138.535C79.3096 139.198 80.6979 139.613 82.1252 139.76C83.8672 139.971 85.6333 139.723 87.2546 139.038C88.8759 138.353 90.2984 137.255 91.3863 135.849C92.293 134.715 92.9871 133.42 93.4337 132.029C93.8059 130.722 94.0201 129.374 94.0715 128.013C94.1765 128.37 94.2218 128.743 94.2055 129.115C94.2284 130.138 94.095 131.159 93.81 132.14C93.3997 133.606 92.7104 134.975 91.7817 136.168C90.6597 137.656 89.1741 138.815 87.4744 139.529C85.7747 140.243 83.9209 140.487 82.0997 140.236C80.6188 140.065 79.1859 139.595 77.8837 138.854C77.0054 138.364 76.2053 137.739 75.511 137.003C75.2435 136.755 75.0173 136.464 74.8413 136.142Z" fill="white"/>
<path d="M108.67 192.593C108.675 192.335 108.702 192.077 108.753 191.824C108.894 191.093 109.13 190.385 109.455 189.719C110.259 187.972 112.255 185.775 115.406 184.439C118.557 183.102 122.785 182.737 127.091 184.015C129.195 184.667 131.606 185.442 133.182 187.535C133.584 188.072 133.838 188.71 133.917 189.382C133.995 190.054 133.896 190.736 133.628 191.355C133.015 192.568 132.016 193.531 130.796 194.086C129.625 194.681 128.341 195.008 127.033 195.044C125.735 195.111 124.456 194.704 123.423 193.897C122.944 193.481 122.553 192.969 122.274 192.393C121.996 191.817 121.835 191.188 121.803 190.547C121.734 189.349 121.919 188.151 122.345 187.033C123.889 183.225 126.828 180.184 130.535 178.559C132.989 177.444 135.677 176.973 138.354 177.19C139.329 177.263 140.29 177.47 141.212 177.803C141.212 177.874 140.198 177.529 138.342 177.398C135.709 177.266 133.083 177.785 130.688 178.911C129.039 179.677 127.529 180.724 126.223 182.007C124.726 183.472 123.557 185.251 122.798 187.222C122.406 188.275 122.236 189.402 122.301 190.527C122.33 191.098 122.473 191.656 122.721 192.168C122.969 192.68 123.316 193.136 123.742 193.506C124.684 194.229 125.845 194.589 127.02 194.523C128.248 194.486 129.453 194.179 130.554 193.623C131.662 193.116 132.573 192.247 133.143 191.153C133.367 190.623 133.448 190.042 133.38 189.469C133.311 188.897 133.096 188.353 132.754 187.893C132.042 186.975 131.132 186.237 130.095 185.736C129.084 185.243 128.031 184.843 126.95 184.543C122.734 183.239 118.595 183.5 115.546 184.843C113.063 185.76 110.971 187.535 109.634 189.862C109.205 190.729 108.882 191.646 108.67 192.593Z" fill="white"/>
<path d="M70.1338 184.563C70.2832 184.474 70.4443 184.408 70.6122 184.367C70.9311 184.256 71.4094 184.106 72.0281 183.95C73.7923 183.469 75.6201 183.277 77.4432 183.383C78.7122 183.481 79.9562 183.796 81.1234 184.315C82.4853 184.911 83.6706 185.862 84.5612 187.072C85.5383 188.439 86.0105 190.116 85.8943 191.805C85.8356 192.699 85.5736 193.568 85.1289 194.341C84.664 195.167 83.9271 195.797 83.0496 196.12C82.5949 196.278 82.1075 196.311 81.6362 196.216C81.165 196.121 80.7264 195.902 80.3644 195.579C79.7289 194.893 79.3791 193.981 79.3885 193.037C79.3335 191.375 79.6521 189.723 80.3197 188.206C80.8728 186.923 81.6703 185.766 82.6657 184.801C83.6611 183.836 84.8345 183.084 86.1175 182.587C87.842 181.922 89.7075 181.734 91.5262 182.04C92.0143 182.121 92.4945 182.245 92.9613 182.411C93.1298 182.46 93.2909 182.532 93.4396 182.626C93.4396 182.679 92.7572 182.405 91.5262 182.248C89.7511 182.031 87.9511 182.271 86.2897 182.946C83.8265 183.954 81.8542 185.918 80.8045 188.409C80.1775 189.855 79.8808 191.429 79.937 193.011C79.9179 193.808 80.1935 194.583 80.7088 195.181C81.0033 195.436 81.3572 195.608 81.7361 195.681C82.115 195.754 82.506 195.726 82.871 195.599C83.6265 195.31 84.2601 194.761 84.6633 194.047C85.0733 193.347 85.3199 192.56 85.384 191.746C85.4931 190.179 85.0621 188.622 84.1658 187.346C83.3379 186.213 82.24 185.315 80.9767 184.739C79.8578 184.224 78.6642 183.901 77.4432 183.78C75.6569 183.643 73.8607 183.773 72.111 184.165C70.829 184.426 70.1465 184.615 70.1338 184.563Z" fill="white"/>
<path d="M168.683 187.692C168.585 187.625 168.495 187.546 168.415 187.457C168.169 187.224 167.935 186.978 167.714 186.721C166.896 185.771 166.196 184.722 165.628 183.598C164.785 181.931 164.161 180.158 163.772 178.325C163.304 176.088 163.038 173.812 162.975 171.526C162.879 169.094 162.975 166.767 162.898 164.681C162.807 162.824 162.609 160.974 162.305 159.14C162.063 157.569 161.814 156.311 161.667 155.438C161.584 155.034 161.521 154.701 161.469 154.434C161.437 154.319 161.42 154.201 161.418 154.082C161.473 154.188 161.512 154.302 161.533 154.421C161.597 154.642 161.686 154.975 161.788 155.412C162.005 156.272 162.286 157.53 162.56 159.095C162.892 160.934 163.105 162.794 163.198 164.662C163.275 166.774 163.198 169.081 163.3 171.506C163.354 173.778 163.606 176.04 164.053 178.266C164.427 180.073 165.02 181.825 165.819 183.481C166.362 184.601 167.023 185.656 167.79 186.629C168.345 187.32 168.683 187.666 168.683 187.692Z" fill="#455A64"/>
<path d="M165.494 183.728C162.711 185.201 160.235 187.213 158.204 189.654C158.4 189.222 158.66 188.824 158.976 188.474C159.683 187.584 160.483 186.775 161.361 186.062C162.239 185.346 163.19 184.732 164.2 184.23C164.603 183.996 165.04 183.826 165.494 183.728Z" fill="white"/>
<path d="M184.22 163.996C183.941 164.14 183.651 164.26 183.352 164.355C182.791 164.55 181.968 164.831 180.973 165.222C178.377 166.219 175.896 167.504 173.575 169.055C170.858 170.874 168.759 173.005 167.107 174.413C166.475 175.004 165.733 175.458 164.926 175.749C164.703 175.823 164.471 175.862 164.237 175.867C164.078 175.867 163.995 175.867 163.995 175.867C164.296 175.808 164.594 175.734 164.888 175.645C165.656 175.31 166.358 174.835 166.96 174.244C168.549 172.816 170.641 170.632 173.396 168.794C175.729 167.215 178.247 165.943 180.89 165.007C181.898 164.642 182.734 164.394 183.308 164.238C183.603 164.125 183.909 164.045 184.22 163.996Z" fill="white"/>
<path d="M177.759 143.984C177.539 144.059 177.309 144.103 177.077 144.114L175.208 144.401C173.632 144.649 171.464 145.053 169.085 145.562C166.706 146.07 164.575 146.65 163.064 147.159C161.552 147.667 160.666 148.104 160.64 148.058C160.822 147.906 161.023 147.781 161.24 147.687C161.809 147.403 162.392 147.151 162.987 146.93C164.957 146.226 166.971 145.658 169.015 145.229C171.4 144.708 173.588 144.349 175.176 144.16C175.973 144.069 176.617 144.01 177.089 143.984C177.312 143.957 177.537 143.957 177.759 143.984Z" fill="white"/>
<path d="M134.056 62.2988C130.025 61.1841 125.988 64.9845 121.861 64.3065C119.354 63.8893 117.396 61.9272 115.158 60.7408C111.784 58.9612 107.096 58.7852 103.773 60.6887C100.45 62.5921 98.332 64.5086 98.0322 68.3742C94.8942 66.6728 89.8937 70.8121 88.2736 74.6907C86.6535 78.5693 87.2212 82.5131 88.3438 86.5612C90.2976 93.5703 93.5785 100.119 98.0003 105.837C98.3894 106.339 99.0081 106.893 99.563 106.6C99.7387 106.468 99.8809 106.295 99.9775 106.095C100.074 105.895 100.122 105.675 100.118 105.452C100.583 101.684 99.9903 97.8841 99.5502 94.1163C99.1101 90.3485 98.8231 86.4634 99.8691 82.826C100.915 79.1886 103.568 75.8054 107.179 74.945C109.851 74.2931 112.67 75.1079 115.107 76.3986C117.543 77.6893 119.699 79.4428 122.027 80.9617C124.355 82.4805 126.951 83.6669 129.681 83.693C132.411 83.7191 135.313 82.3045 136.397 79.7296C137.481 77.1548 136.053 73.5956 133.355 73.1132C134.592 72.9515 135.737 72.3559 136.593 71.4279C137.449 70.5 137.963 69.2972 138.048 68.0249C138.133 66.7525 137.784 65.4894 137.059 64.4511C136.335 63.4128 135.28 62.6636 134.075 62.3314L134.056 62.2988Z" fill="#263238"/>
<path d="M94.1093 87.5129L99.4797 129.695C99.6958 131.394 100.248 133.031 101.101 134.506C101.955 135.98 103.094 137.262 104.447 138.274C105.8 139.285 107.341 140.005 108.975 140.389C110.609 140.773 112.302 140.814 113.952 140.51C117.082 139.931 119.875 138.145 121.752 135.52C123.629 132.895 124.447 129.634 124.036 126.41C123.628 123.235 123.289 120.589 123.27 120.256C123.27 120.256 133.648 117.851 133.054 107.121C132.767 101.939 131.326 91.3068 129.91 81.6983C129.168 76.7318 126.626 72.2321 122.788 69.0924C118.95 65.9527 114.098 64.4026 109.194 64.7498L108.18 64.8215C97.3048 66.223 92.4191 76.4508 94.1093 87.5129Z" fill="#FFBE9D"/>
<path d="M123.27 120.1C118.446 120.527 113.607 119.481 109.366 117.095C109.366 117.095 113.116 124.578 123.519 122.877L123.27 120.1Z" fill="#EB996E"/>
<path d="M125.988 89.3903C126.02 89.7889 125.897 90.1844 125.647 90.4916C125.396 90.7989 125.037 90.9933 124.648 91.033C124.457 91.0612 124.261 91.0496 124.074 90.9987C123.887 90.9479 123.712 90.8589 123.56 90.7371C123.407 90.6153 123.28 90.4632 123.187 90.29C123.093 90.1168 123.035 89.9261 123.015 89.7292C122.985 89.331 123.108 88.9364 123.358 88.6295C123.608 88.3227 123.966 88.1278 124.355 88.0865C124.546 88.0573 124.742 88.0683 124.929 88.1187C125.117 88.1692 125.292 88.2581 125.445 88.3801C125.598 88.502 125.725 88.6545 125.818 88.8282C125.911 89.0018 125.969 89.1931 125.988 89.3903Z" fill="#263238"/>
<path d="M128.009 87.1284C127.837 87.337 126.644 86.5613 125.031 86.6786C123.417 86.796 122.295 87.7021 122.103 87.513C122.014 87.4348 122.18 87.0567 122.664 86.6395C123.33 86.0971 124.143 85.7764 124.992 85.7204C125.83 85.6588 126.666 85.8711 127.378 86.3266C127.901 86.6852 128.092 87.0306 128.009 87.1284Z" fill="#263238"/>
<path d="M110.482 90.4789C110.512 90.8778 110.389 91.2732 110.139 91.5811C109.889 91.889 109.532 92.0852 109.142 92.1281C108.953 92.1565 108.76 92.1461 108.574 92.0973C108.388 92.0486 108.214 91.9625 108.062 91.8441C107.909 91.7258 107.781 91.5775 107.685 91.408C107.589 91.2385 107.527 91.0512 107.503 90.857C107.473 90.458 107.595 90.0627 107.846 89.7547C108.096 89.4468 108.453 89.2506 108.843 89.2078C109.032 89.1793 109.225 89.1898 109.411 89.2385C109.596 89.2873 109.771 89.3734 109.923 89.4917C110.076 89.6101 110.204 89.7583 110.3 89.9278C110.396 90.0973 110.457 90.2847 110.482 90.4789Z" fill="#263238"/>
<path d="M112.185 88.5494C112.013 88.7645 110.821 87.9888 109.207 88.1062C107.593 88.2235 106.471 89.1296 106.286 88.9405C106.19 88.8558 106.356 88.4842 106.847 88.067C107.509 87.5222 108.32 87.201 109.169 87.1479C110.007 87.0854 110.842 87.2978 111.554 87.7541C112.077 88.0866 112.268 88.4582 112.185 88.5494Z" fill="#263238"/>
<path d="M118.857 100.355C118.857 100.264 119.833 100.016 121.447 99.703C121.855 99.6313 122.238 99.5205 122.289 99.2272C122.293 98.7891 122.169 98.3597 121.931 97.9951C121.472 97.0108 120.994 95.9678 120.496 94.8792C118.494 90.44 117.02 86.7765 117.192 86.6983C117.365 86.6201 119.106 90.1467 121.134 94.5924C121.612 95.6875 122.078 96.7305 122.518 97.7279C122.809 98.2181 122.924 98.7966 122.843 99.364C122.792 99.5147 122.708 99.6515 122.597 99.7644C122.487 99.8772 122.353 99.9632 122.206 100.016C121.981 100.094 121.747 100.145 121.51 100.166C119.884 100.368 118.87 100.472 118.857 100.355Z" fill="#263238"/>
<path d="M114.195 101.828C114.456 101.795 114.577 103.582 116.159 104.748C117.741 105.915 119.591 105.583 119.623 105.831C119.623 105.941 119.234 106.209 118.449 106.287C117.425 106.374 116.403 106.088 115.566 105.479C114.762 104.895 114.209 104.017 114.023 103.028C113.908 102.284 114.074 101.828 114.195 101.828Z" fill="#263238"/>
<path d="M112.166 82.07C112.039 82.5263 110.412 82.4286 108.537 82.7936C106.662 83.1587 105.169 83.7975 104.889 83.4455C104.768 83.2629 105.004 82.7936 105.59 82.3438C106.376 81.751 107.284 81.3504 108.245 81.1729C109.206 80.9955 110.194 81.0459 111.133 81.3204C111.847 81.5225 112.217 81.8484 112.166 82.07Z" fill="#263238"/>
<path d="M127.09 82.4025C126.835 82.7936 125.7 82.4872 124.361 82.5589C123.021 82.6306 121.911 82.9891 121.624 82.6111C121.497 82.435 121.624 82.0439 122.122 81.6528C122.756 81.1818 123.513 80.9141 124.297 80.884C125.081 80.8538 125.855 81.0624 126.523 81.4833C127.027 81.8353 127.224 82.2199 127.09 82.4025Z" fill="#263238"/>
<path d="M95.5 95.3939C95.315 95.3222 88.1459 93.7186 88.8731 101.033C89.6002 108.347 96.6098 106.091 96.6098 105.882C96.6098 105.674 95.5 95.3939 95.5 95.3939Z" fill="#FFBE9D"/>
<path d="M94.1604 103.34C94.1604 103.34 94.0456 103.438 93.8415 103.562C93.557 103.72 93.224 103.762 92.9103 103.679C92.1322 103.47 91.3732 102.31 91.2073 101C91.127 100.374 91.1836 99.7368 91.3732 99.1355C91.4182 98.9001 91.5182 98.6794 91.6649 98.4921C91.8115 98.3048 92.0003 98.1565 92.2151 98.06C92.3548 98.0061 92.5085 98.004 92.6495 98.054C92.7905 98.104 92.9099 98.203 92.9869 98.3337C93.1017 98.5293 93.0698 98.6792 93.108 98.6923C93.1463 98.7053 93.2484 98.5489 93.1654 98.2555C93.1068 98.0773 92.9896 97.9253 92.8338 97.8253C92.7297 97.7605 92.6142 97.7174 92.4938 97.6983C92.3734 97.6793 92.2505 97.6848 92.1322 97.7145C91.8439 97.803 91.5828 97.9658 91.3739 98.1873C91.165 98.4087 91.0154 98.6814 90.9395 98.9791C90.6956 99.6444 90.6167 100.361 90.7098 101.065C90.9012 102.532 91.775 103.835 92.8402 104.031C93.0382 104.069 93.2421 104.06 93.4364 104.006C93.6308 103.952 93.8107 103.853 93.9627 103.718C94.1668 103.516 94.186 103.347 94.1604 103.34Z" fill="#EB996E"/>
<path d="M131.977 79.3254C129.695 80.0993 127.265 80.3079 124.889 79.9339C122.512 79.5599 120.257 78.614 118.308 77.1743C115.61 75.147 113.423 72.1093 110.163 71.3075C109.052 71.0865 107.909 71.0937 106.801 71.3287C105.693 71.5637 104.642 72.0219 103.709 72.6764C101.848 73.9962 100.274 75.6938 99.0844 77.6632C101.476 82.9694 100.526 89.1425 99.5308 94.8985C99.4855 95.5461 99.2321 96.1602 98.8101 96.6455C98.0065 97.3756 96.6989 96.9453 95.908 96.2022C94.6324 95.0223 94.0584 93.2623 93.6374 91.5609C92.6244 87.6864 92.3751 83.6448 92.9039 79.6709C93.4498 75.6835 95.1261 71.9467 97.7258 68.9217C101.12 65.2457 105.778 63.0605 110.718 62.8267C115.643 62.6307 120.502 64.0292 124.603 66.8227C126.559 68.0193 128.192 69.6951 129.355 71.6986" fill="#263238"/>
<path d="M137.245 64.6653C137.289 64.8802 137.289 65.1021 137.245 65.3171C137.115 65.9297 136.797 66.4842 136.339 66.9012C135.604 67.5416 134.688 67.9272 133.724 68.0028C133.131 68.0749 132.532 68.0749 131.938 68.0028C131.247 67.9392 130.586 67.6846 130.025 67.2662C129.716 67.0327 129.462 66.7309 129.284 66.3832C129.105 66.0355 129.005 65.651 128.992 65.2584C129.022 64.8314 129.168 64.4215 129.415 64.0757C129.662 63.7298 130 63.462 130.389 63.3029C130.788 63.1143 131.225 63.025 131.664 63.0421C132.127 63.0687 132.571 63.2368 132.94 63.5245C133.317 63.8181 133.627 64.1927 133.847 64.6218C134.067 65.0508 134.193 65.524 134.215 66.0081C134.263 67.0227 133.922 68.0162 133.265 68.7785C132.593 69.5546 131.733 70.1367 130.771 70.4669C128.744 71.092 126.57 71.0047 124.597 70.2191C122.654 69.4758 120.801 68.5069 119.074 67.3314C117.48 66.2557 115.801 65.3181 114.054 64.5284C112.476 63.8295 110.756 63.5299 109.041 63.6549C107.552 63.8066 106.114 64.2942 104.831 65.0825C102.967 66.2465 101.429 67.8835 100.366 69.8345C100.068 70.3603 99.7976 70.9021 99.5564 71.4577C99.4814 71.6545 99.3941 71.8461 99.2949 72.0313C99.2995 71.9774 99.3124 71.9246 99.3332 71.8749C99.3715 71.7771 99.4161 71.6207 99.4926 71.4316C99.7049 70.8601 99.9564 70.3046 100.245 69.7694C101.278 67.7548 102.819 66.0598 104.71 64.8608C106.005 64.0295 107.465 63.5019 108.983 63.3159C110.747 63.1703 112.518 63.468 114.143 64.1829C115.92 64.9651 117.627 65.9029 119.246 66.9859C120.944 68.1413 122.765 69.097 124.674 69.8345C126.572 70.595 128.664 70.6845 130.618 70.0888C131.521 69.7898 132.331 69.2523 132.965 68.5308C133.267 68.1903 133.501 67.7922 133.652 67.3593C133.803 66.9263 133.869 66.4671 133.846 66.0081C133.832 65.5745 133.727 65.149 133.538 64.7608C133.349 64.3726 133.079 64.0309 132.748 63.7592C132.43 63.5183 132.052 63.372 131.657 63.3364C131.262 63.3007 130.865 63.3771 130.51 63.5571C130.16 63.6877 129.854 63.9178 129.628 64.2205C129.402 64.5231 129.265 64.8856 129.234 65.265C129.243 65.6165 129.331 65.9612 129.49 66.2729C129.649 66.5847 129.876 66.8553 130.153 67.0641C130.666 67.459 131.274 67.7045 131.913 67.7747C132.489 67.8429 133.071 67.8429 133.648 67.7747C134.58 67.7209 135.472 67.3698 136.199 66.7708C136.644 66.3766 136.965 65.8575 137.124 65.278C137.176 65.0764 137.216 64.8718 137.245 64.6653Z" fill="#455A64"/>
<path d="M87.3872 81.0921C88.1167 81.3056 88.864 81.4496 89.6196 81.5223C90.4346 81.5399 91.2451 81.3937 92.005 81.0921C92.9386 80.7216 93.8134 80.212 94.6009 79.5797C96.0269 78.4206 97.0454 76.8191 97.503 75.0167C97.6598 74.2578 97.7664 73.4891 97.8219 72.7156C97.8909 72.9253 97.9191 73.1467 97.9048 73.3674C97.9176 73.9476 97.8641 74.5274 97.7454 75.0949C97.3479 76.9984 96.3152 78.7013 94.8242 79.9122C94.0045 80.5678 93.09 81.089 92.1134 81.4571C91.3121 81.7567 90.4581 81.881 89.6068 81.8221C89.0359 81.7773 88.4748 81.6455 87.9421 81.431C87.7397 81.351 87.552 81.2364 87.3872 81.0921Z" fill="#455A64"/>
<path d="M88.0566 86.3721C88.0566 86.3069 88.9113 86.4373 90.2635 86.2678C92.0194 86.0521 93.6865 85.3589 95.0911 84.2605C96.4956 83.1621 97.5861 81.6987 98.249 80.023C98.7656 78.7192 98.8868 77.8653 98.9251 77.8783C98.9615 78.0809 98.9615 78.2885 98.9251 78.4911C98.838 79.0438 98.7013 79.5871 98.5169 80.1142C97.8983 81.8747 96.7962 83.4156 95.3425 84.5521C93.8888 85.6886 92.1453 86.3726 90.3209 86.5221C89.7757 86.5739 89.2269 86.5739 88.6817 86.5221C88.4661 86.5121 88.2541 86.4613 88.0566 86.3721Z" fill="#455A64"/>
<path d="M107.306 95.9091C107.269 95.9247 107.228 95.9285 107.189 95.9199C107.15 95.9113 107.114 95.8907 107.086 95.8609C107.059 95.831 107.041 95.7933 107.035 95.7528C107.029 95.7123 107.035 95.6708 107.053 95.6339C107.07 95.5971 107.098 95.5665 107.133 95.5464C107.168 95.5262 107.208 95.5174 107.248 95.5211C107.288 95.5248 107.326 95.5408 107.357 95.567C107.388 95.5932 107.41 95.6284 107.421 95.6679C107.429 95.6914 107.432 95.7163 107.431 95.7412C107.429 95.7661 107.423 95.7905 107.413 95.8129C107.402 95.8353 107.387 95.8553 107.369 95.8718C107.35 95.8884 107.329 95.901 107.306 95.9091Z" fill="#EB996E"/>
<path d="M110.336 95.003C110.294 95.027 110.247 95.0372 110.199 95.032C110.151 95.0268 110.107 95.0066 110.071 94.9743C110.035 94.9419 110.01 94.8989 110 94.8513C109.989 94.8037 109.993 94.7539 110.011 94.7087C110.029 94.6636 110.061 94.6255 110.102 94.5996C110.142 94.5737 110.19 94.5614 110.237 94.5644C110.285 94.5674 110.331 94.5855 110.368 94.6162C110.405 94.6469 110.432 94.6887 110.444 94.7358C110.455 94.7606 110.46 94.7872 110.46 94.8142C110.461 94.8411 110.455 94.8679 110.445 94.8928C110.435 94.9177 110.42 94.9403 110.402 94.9592C110.383 94.9781 110.361 94.993 110.336 95.003Z" fill="#EB996E"/>
<path d="M112.402 94.8007C112.307 94.8007 112.205 94.7094 112.173 94.5464C112.141 94.3835 112.173 94.2401 112.294 94.2205C112.415 94.2009 112.492 94.3118 112.524 94.4747C112.555 94.6377 112.498 94.7811 112.402 94.8007Z" fill="#EB996E"/>
<path d="M108.952 97.7996C108.85 97.7996 108.767 97.7605 108.767 97.6953C108.767 97.6301 108.837 97.5779 108.932 97.5714C109.028 97.5649 109.117 97.6105 109.117 97.6757C109.117 97.7409 109.047 97.793 108.952 97.7996Z" fill="#EB996E"/>
<path d="M111.726 96.9325C111.686 96.9438 111.644 96.9425 111.605 96.9288C111.565 96.9151 111.531 96.8895 111.507 96.8556C111.482 96.8216 111.468 96.7809 111.467 96.7387C111.466 96.6965 111.477 96.6548 111.499 96.6192C111.521 96.5837 111.553 96.5558 111.591 96.5394C111.63 96.523 111.672 96.5187 111.712 96.5272C111.753 96.5358 111.79 96.5566 111.818 96.5871C111.847 96.6175 111.866 96.6562 111.872 96.6978C111.879 96.7231 111.88 96.7496 111.876 96.7754C111.872 96.8013 111.863 96.826 111.849 96.8481C111.836 96.8702 111.817 96.8891 111.796 96.9036C111.775 96.9181 111.751 96.928 111.726 96.9325Z" fill="#EB996E"/>
<path d="M126.306 94.1034C126.268 94.1204 126.226 94.1251 126.185 94.1169C126.144 94.1087 126.107 94.0879 126.078 94.0574C126.049 94.0269 126.03 93.9881 126.023 93.9462C126.016 93.9043 126.022 93.8613 126.04 93.8229C126.058 93.7845 126.087 93.7526 126.123 93.7314C126.159 93.7102 126.2 93.7008 126.242 93.7043C126.283 93.7079 126.323 93.7243 126.355 93.7513C126.387 93.7784 126.41 93.8148 126.421 93.8557C126.43 93.8796 126.434 93.9051 126.433 93.9308C126.432 93.9564 126.426 93.9815 126.416 94.0047C126.405 94.0279 126.39 94.0486 126.371 94.0655C126.352 94.0825 126.33 94.0954 126.306 94.1034Z" fill="#EB996E"/>
<path d="M128.393 93.7577C128.297 93.7577 128.201 93.6859 128.176 93.5621C128.162 93.5094 128.169 93.4532 128.195 93.4057C128.222 93.3582 128.265 93.3231 128.316 93.3079C128.412 93.3079 128.508 93.3796 128.527 93.5034C128.534 93.5291 128.537 93.5561 128.535 93.5829C128.532 93.6096 128.524 93.6356 128.512 93.6593C128.5 93.683 128.483 93.7039 128.462 93.7208C128.442 93.7377 128.418 93.7502 128.393 93.7577Z" fill="#EB996E"/>
<path d="M124.457 94.2859C124.436 94.2975 124.413 94.3041 124.389 94.3052C124.365 94.3062 124.341 94.3018 124.319 94.2922C124.297 94.2826 124.277 94.268 124.262 94.2496C124.246 94.2312 124.234 94.2094 124.228 94.1858C124.222 94.1622 124.22 94.1375 124.225 94.1134C124.229 94.0894 124.238 94.0666 124.252 94.0468C124.267 94.027 124.285 94.0106 124.306 93.999C124.327 93.9874 124.35 93.9807 124.374 93.9796C124.395 93.968 124.419 93.9614 124.442 93.9604C124.466 93.9593 124.49 93.9637 124.512 93.9733C124.534 93.983 124.554 93.9975 124.57 94.0159C124.585 94.0343 124.597 94.0561 124.603 94.0797C124.61 94.1033 124.611 94.128 124.606 94.1521C124.602 94.1762 124.593 94.199 124.579 94.2188C124.565 94.2386 124.546 94.2549 124.525 94.2665C124.504 94.2782 124.481 94.2848 124.457 94.2859Z" fill="#EB996E"/>
<path d="M126.153 96.3195C126.13 96.3303 126.106 96.3363 126.081 96.3372C126.056 96.3381 126.031 96.3338 126.008 96.3247C125.985 96.3156 125.964 96.3018 125.946 96.2841C125.928 96.2664 125.914 96.2452 125.904 96.2218C125.889 96.2006 125.879 96.1764 125.874 96.1509C125.869 96.1253 125.869 96.0989 125.875 96.0735C125.881 96.0481 125.892 96.0243 125.907 96.0036C125.923 95.9829 125.942 95.9659 125.965 95.9537C125.988 95.9414 126.012 95.9343 126.038 95.9327C126.063 95.9311 126.089 95.9351 126.113 95.9445C126.137 95.9538 126.158 95.9683 126.176 95.9869C126.194 96.0055 126.208 96.0278 126.216 96.0523C126.242 96.0964 126.25 96.1493 126.238 96.1993C126.226 96.2493 126.196 96.2925 126.153 96.3195Z" fill="#EB996E"/>
<path d="M127.926 95.8309C127.904 95.8285 127.883 95.8216 127.864 95.8108C127.845 95.8 127.828 95.7853 127.814 95.7677C127.801 95.7501 127.79 95.73 127.785 95.7084C127.779 95.6867 127.777 95.6641 127.78 95.6419C127.781 95.6048 127.794 95.5693 127.816 95.5399C127.839 95.5105 127.869 95.4887 127.904 95.4774C127.938 95.4661 127.975 95.4659 128.01 95.4767C128.045 95.4875 128.075 95.5088 128.098 95.5378C128.12 95.5669 128.134 95.6023 128.136 95.6393C128.138 95.6763 128.13 95.7132 128.111 95.745C128.093 95.7768 128.065 95.8021 128.032 95.8174C127.999 95.8328 127.962 95.8375 127.926 95.8309Z" fill="#EB996E"/>
<path d="M91.4242 105.531C91.2947 106.081 91.2666 106.651 91.3413 107.212C91.4481 107.801 91.7639 108.328 92.2279 108.692C92.5009 108.913 92.8223 109.063 93.1645 109.129C93.5067 109.195 93.8594 109.175 94.1923 109.07C94.5151 108.951 94.8021 108.748 95.0256 108.482C95.2492 108.216 95.4015 107.895 95.468 107.551C95.5231 106.957 95.3767 106.361 95.0534 105.863C94.7722 105.374 94.3835 104.959 93.9181 104.651C93.9181 104.598 94.6579 104.774 95.2703 105.726C95.6611 106.267 95.847 106.934 95.7933 107.604C95.7243 108.017 95.5475 108.403 95.2814 108.722C95.0154 109.041 94.6699 109.281 94.2816 109.416C93.8934 109.539 93.4813 109.561 93.0825 109.48C92.6838 109.399 92.3111 109.218 91.9983 108.953C91.4843 108.53 91.1505 107.92 91.067 107.252C91.0013 106.814 91.0407 106.366 91.1818 105.948C91.303 105.687 91.4051 105.524 91.4242 105.531Z" fill="#263238"/>
<path d="M91.36 104.292C91.36 104.253 91.6279 104.364 91.7937 104.761C91.8779 105.001 91.8779 105.264 91.7937 105.504C91.7421 105.655 91.658 105.792 91.5476 105.905C91.4372 106.017 91.3033 106.103 91.1559 106.156C91.0034 106.207 90.8411 106.219 90.6831 106.191C90.5251 106.162 90.3764 106.094 90.2502 105.993C90.1466 105.913 90.0636 105.808 90.0081 105.688C89.9526 105.567 89.9262 105.435 89.9313 105.302C89.9632 104.846 90.2566 104.709 90.2693 104.748C90.2821 104.787 90.1418 104.97 90.1864 105.296C90.1955 105.382 90.223 105.465 90.2671 105.54C90.3112 105.614 90.3708 105.678 90.4415 105.726C90.5278 105.785 90.6259 105.823 90.7286 105.838C90.8313 105.852 90.936 105.843 91.0347 105.811C91.1353 105.773 91.2271 105.714 91.304 105.637C91.3809 105.561 91.4413 105.469 91.4812 105.367C91.5537 105.195 91.5715 105.003 91.5322 104.82C91.5067 104.507 91.3217 104.331 91.36 104.292Z" fill="#263238"/>
<path d="M146.512 199.432L145.294 213.245H151.672L157.31 213.153C159.458 213.392 161.621 213.451 163.778 213.329C163.882 213.331 163.985 213.306 164.078 213.258C164.412 213.21 164.741 213.129 165.06 213.016C165.634 212.801 166.227 212.423 166.138 211.778C165.857 209.822 164.709 209.64 164.709 209.64L164.129 209.601L164.084 209.431C164.958 209.431 165.691 209.431 166.08 209.366C166.265 209.366 166.367 209.32 166.38 209.294C166.393 209.268 168.638 209.02 168.466 207.801C168.192 205.846 167.037 205.663 167.037 205.663L165.181 205.539C166.08 205.539 166.846 205.539 167.248 205.474C167.426 205.474 167.535 205.435 167.547 205.409C167.56 205.383 169.805 205.129 169.633 203.91C169.352 201.954 168.204 201.778 168.204 201.778L166.667 201.667C167.394 201.667 168 201.667 168.338 201.609C168.523 201.609 168.625 201.563 168.638 201.537C168.651 201.511 170.896 201.263 170.724 200.044C170.449 198.089 169.295 197.906 169.295 197.906C169.295 197.906 165.742 197.645 163.306 197.548C163.306 197.548 160.538 194.992 159.479 195.11C157.853 195.286 148.381 198.864 148.381 198.864L146.512 199.432Z" fill="#FFBE9D"/>
<path d="M158.478 209.171C158.478 209.288 159.9 209.425 161.635 209.484C163.37 209.542 164.773 209.484 164.761 209.379C164.748 209.275 163.338 209.125 161.603 209.066C159.868 209.008 158.478 209.06 158.478 209.171Z" fill="#EB996E"/>
<path d="M158.44 205.266C158.44 205.377 160.449 205.546 162.905 205.637C165.36 205.729 167.369 205.702 167.408 205.592C167.446 205.481 165.399 205.305 162.943 205.22C160.487 205.135 158.478 205.148 158.44 205.266Z" fill="#EB996E"/>
<g opacity="0.78">
<path d="M158.765 201.289C158.765 201.407 160.768 201.576 163.23 201.661C165.692 201.746 167.733 201.733 167.733 201.615C167.733 201.498 165.73 201.335 163.268 201.244C160.806 201.153 158.765 201.179 158.765 201.289Z" fill="#EB996E"/>
</g>
<path d="M164.333 197.561C163.862 197.65 163.383 197.687 162.905 197.672L159.454 197.789L156.003 197.913C155.527 197.972 155.045 197.972 154.568 197.913C155.032 197.783 155.51 197.709 155.991 197.692C156.871 197.6 158.096 197.509 159.441 197.463C160.787 197.418 161.993 197.418 162.905 197.463C163.383 197.435 163.863 197.468 164.333 197.561Z" fill="#EB996E"/>
<path d="M146.684 197.398H146.461L145.823 197.365L143.336 197.215L134.196 196.642C126.472 196.159 115.801 195.475 104.014 194.862L97.6999 194.569H97.5468V194.412C97.4511 191.805 97.2151 189.237 97.0301 186.786C96.8452 184.335 96.6283 181.981 96.437 179.752C96.0543 175.293 95.7099 171.317 95.4165 167.986C95.1231 164.655 94.9062 162.015 94.7786 160.163C94.7021 159.264 94.6511 158.56 94.6064 158.058C94.6064 157.83 94.6064 157.647 94.5745 157.51C94.5689 157.447 94.5689 157.384 94.5745 157.321C94.5936 157.38 94.6044 157.442 94.6064 157.504C94.6064 157.647 94.6447 157.823 94.6766 158.051C94.7276 158.553 94.8042 159.257 94.8998 160.157C95.0848 162.008 95.3463 164.668 95.6716 167.979C95.9969 171.291 96.3541 175.28 96.7686 179.713C96.96 181.942 97.1641 184.276 97.4065 186.747C97.6488 189.217 97.8402 191.74 97.9422 194.399L97.7828 194.23L104.104 194.517C115.89 195.129 126.561 195.853 134.279 196.394L143.419 197.046L145.9 197.255L146.538 197.32L146.684 197.398Z" fill="#455A64"/>
<path d="M102.121 213.245C101.985 213.025 101.878 212.789 101.802 212.541C101.684 212.264 101.586 211.978 101.508 211.687C101.385 211.305 101.285 210.915 101.209 210.52C101.101 210.043 101.022 209.56 100.973 209.073C100.909 208.517 100.873 207.958 100.864 207.398C100.837 204.813 101.4 202.257 102.51 199.934C102.753 199.431 103.021 198.941 103.313 198.467C103.567 198.052 103.841 197.652 104.136 197.268C104.371 196.928 104.627 196.604 104.902 196.296C105.096 196.061 105.309 195.843 105.539 195.645C105.717 195.459 105.912 195.291 106.12 195.143C106.171 195.195 105.354 195.925 104.34 197.352C104.063 197.74 103.805 198.143 103.569 198.558C103.294 198.995 103.065 199.497 102.803 200.012C101.736 202.315 101.179 204.83 101.17 207.378C101.169 207.929 101.194 208.479 101.247 209.027C101.284 209.507 101.347 209.983 101.438 210.455C101.757 212.176 102.185 213.193 102.121 213.245Z" fill="white"/>
<path d="M186.147 213.297C186.147 213.388 159.588 213.467 126.83 213.467C94.0714 213.467 67.5127 213.388 67.5127 213.297C67.5127 213.206 94.065 213.128 126.83 213.128C159.594 213.128 186.147 213.199 186.147 213.297Z" fill="#263238"/>
<path d="M172.038 0.0847474L80.9834 4.19851e-06C78.3758 -0.00171089 75.7934 0.522049 73.3841 1.54132C70.9747 2.56059 68.7857 4.05537 66.9421 5.94013C65.0985 7.8249 63.6367 10.0627 62.6402 12.5254C61.6436 14.9882 61.132 17.6275 61.1345 20.2926L61.0898 253.608C61.0949 258.98 63.1851 264.13 66.9016 267.928C70.6181 271.727 75.6573 273.863 80.9132 273.868L171.974 273.92C174.579 273.922 177.159 273.399 179.565 272.382C181.972 271.365 184.16 269.873 186.002 267.991C187.845 266.11 189.307 263.876 190.304 261.417C191.302 258.958 191.816 256.322 191.817 253.66L191.862 20.3447C191.86 14.972 189.771 9.81977 186.054 6.02067C182.336 2.22156 177.295 0.0864752 172.038 0.0847474ZM185.783 250.264C185.781 252.128 185.419 253.974 184.718 255.695C184.018 257.416 182.992 258.979 181.701 260.295C180.409 261.611 178.876 262.654 177.189 263.365C175.503 264.075 173.696 264.439 171.872 264.436L80.9961 264.384C79.1719 264.383 77.3656 264.015 75.6805 263.3C73.9954 262.586 72.4645 261.54 71.1751 260.221C69.8857 258.902 68.8632 257.336 68.1658 255.613C67.4685 253.89 67.11 252.044 67.1108 250.179L67.1555 22.4502C67.1547 20.585 67.5136 18.7379 68.2118 17.0145C68.9101 15.2912 69.9338 13.7254 71.2247 12.4068C72.5155 11.0882 74.0479 10.0425 75.7345 9.32973C77.421 8.61692 79.2285 8.25091 81.0535 8.25262H102.739C103.899 8.28 105 8.77534 105.804 9.63037C106.607 10.4854 107.046 11.6306 107.025 12.8157V16.075C107.005 17.2601 107.444 18.4053 108.247 19.2603C109.051 20.1154 110.152 20.6107 111.312 20.6381H145.754C146.915 20.6141 148.019 20.12 148.824 19.2644C149.629 18.4088 150.068 17.2617 150.046 16.075V12.8157C150.024 11.6301 150.463 10.4839 151.266 9.62851C152.07 8.7731 153.172 8.27829 154.332 8.25262H171.987C173.812 8.25945 175.618 8.63368 177.301 9.3539C178.984 10.0741 180.512 11.1263 181.797 12.4502C183.083 13.7741 184.1 15.3438 184.792 17.0697C185.483 18.7957 185.835 20.6439 185.828 22.5089L185.783 250.264Z" fill="#263238"/>
<path d="M152.973 213.297H105.724V234.795H152.973V213.297Z" fill="#263238"/>
<path d="M185.789 213.297H145.148C145.148 222.456 137.494 229.906 128.156 229.906C118.818 229.906 111.171 222.456 111.171 213.297H67.1616V250.551C67.1633 254.311 68.6241 257.916 71.2236 260.577C73.8231 263.237 77.349 264.735 81.0278 264.742L171.904 264.794C173.729 264.796 175.537 264.43 177.223 263.717C178.91 263.004 180.442 261.959 181.733 260.64C183.024 259.321 184.048 257.756 184.746 256.032C185.444 254.309 185.803 252.462 185.802 250.597L185.789 213.297Z" fill="#2585EC"/>
<path d="M113.544 236.112H116.325C118.328 236.112 119.706 237.351 119.706 239.241C119.706 241.132 118.328 242.37 116.325 242.37H113.544V236.112ZM116.255 241.184C116.525 241.22 116.799 241.196 117.059 241.115C117.32 241.034 117.56 240.897 117.765 240.714C117.969 240.53 118.133 240.304 118.245 240.051C118.357 239.798 118.415 239.523 118.415 239.245C118.415 238.966 118.357 238.692 118.245 238.438C118.133 238.185 117.969 237.959 117.765 237.775C117.56 237.592 117.32 237.455 117.059 237.374C116.799 237.293 116.525 237.269 116.255 237.305H114.98V241.184H116.255Z" fill="white"/>
<path d="M124.834 239.626V242.37H123.558V241.777C123.398 242.006 123.18 242.188 122.927 242.302C122.675 242.417 122.398 242.46 122.123 242.429C121.02 242.429 120.363 241.777 120.363 240.975C120.363 240.173 120.95 239.534 122.385 239.534H123.469C123.469 238.935 123.118 238.589 122.385 238.589C121.899 238.585 121.425 238.74 121.032 239.032L120.541 238.061C121.145 237.663 121.851 237.459 122.57 237.474C124.037 237.488 124.834 238.172 124.834 239.626ZM123.469 240.851V240.362H122.538C121.9 240.362 121.696 240.603 121.696 240.923C121.696 241.242 121.983 241.503 122.461 241.503C122.675 241.519 122.889 241.464 123.07 241.347C123.252 241.23 123.392 241.056 123.469 240.851Z" fill="white"/>
<path d="M130.88 239.619V242.37H129.515V239.835C129.515 239.059 129.164 238.7 128.558 238.7C127.952 238.7 127.429 239.111 127.429 240.004V242.377H126.064V237.573H127.34V238.133C127.54 237.919 127.782 237.75 128.05 237.637C128.318 237.525 128.607 237.472 128.896 237.481C130.038 237.488 130.88 238.153 130.88 239.619Z" fill="white"/>
<path d="M131.944 236.112C131.947 236.003 131.971 235.896 132.015 235.796C132.06 235.697 132.124 235.609 132.203 235.536C132.283 235.463 132.376 235.408 132.478 235.373C132.579 235.339 132.686 235.327 132.793 235.336C132.897 235.325 133.003 235.335 133.104 235.367C133.204 235.399 133.297 235.452 133.377 235.522C133.456 235.593 133.521 235.679 133.566 235.776C133.612 235.873 133.637 235.979 133.641 236.086C133.641 236.197 133.619 236.307 133.576 236.41C133.532 236.512 133.469 236.604 133.389 236.679C133.31 236.755 133.216 236.814 133.113 236.851C133.01 236.888 132.901 236.902 132.793 236.894C132.686 236.903 132.579 236.89 132.477 236.855C132.376 236.82 132.283 236.764 132.203 236.691C132.124 236.617 132.06 236.528 132.015 236.429C131.971 236.329 131.947 236.222 131.944 236.112ZM132.11 237.566H133.475V242.37H132.11V237.566Z" fill="white"/>
<path d="M139.344 240.363H135.785C135.862 240.66 136.039 240.92 136.286 241.096C136.532 241.273 136.831 241.355 137.131 241.327C137.348 241.337 137.565 241.301 137.768 241.221C137.971 241.141 138.155 241.02 138.311 240.865L139.038 241.666C138.793 241.929 138.495 242.135 138.164 242.269C137.834 242.403 137.479 242.462 137.124 242.442C135.498 242.442 134.439 241.399 134.439 239.965C134.435 239.631 134.498 239.3 134.624 238.993C134.75 238.685 134.935 238.406 135.17 238.174C135.405 237.942 135.683 237.762 135.989 237.644C136.294 237.526 136.62 237.473 136.946 237.488C137.266 237.479 137.584 237.537 137.882 237.659C138.179 237.781 138.448 237.964 138.673 238.197C138.898 238.43 139.074 238.708 139.189 239.013C139.304 239.318 139.357 239.644 139.344 239.971C139.344 240.095 139.344 240.245 139.344 240.363ZM135.766 239.548H138.068C138.019 239.27 137.875 239.019 137.663 238.838C137.451 238.657 137.184 238.558 136.907 238.558C136.631 238.558 136.364 238.657 136.152 238.838C135.94 239.019 135.796 239.27 135.747 239.548H135.766Z" fill="white"/>
<path d="M140.262 235.741H141.627V242.37H140.262V235.741Z" fill="white"/>
<path d="M122.308 246.868V250.538H122.046V247.142H121.172V246.901L122.308 246.868Z" fill="white"/>
<path d="M123.219 248.706C123.219 247.559 123.8 246.842 124.622 246.842C125.445 246.842 126.032 247.559 126.032 248.706C126.032 249.854 125.452 250.564 124.622 250.564C123.793 250.564 123.219 249.854 123.219 248.706ZM125.771 248.706C125.771 247.683 125.305 247.09 124.622 247.09C123.94 247.09 123.481 247.683 123.481 248.706C123.481 249.73 123.946 250.316 124.622 250.316C125.299 250.316 125.771 249.749 125.771 248.706Z" fill="white"/>
<path d="M126.587 248.002C126.582 247.97 126.583 247.938 126.591 247.906C126.6 247.875 126.615 247.846 126.635 247.822C126.655 247.797 126.681 247.777 126.709 247.763C126.738 247.75 126.769 247.743 126.801 247.743C126.832 247.743 126.864 247.75 126.892 247.763C126.921 247.777 126.946 247.797 126.967 247.822C126.987 247.846 127.002 247.875 127.01 247.906C127.018 247.938 127.02 247.97 127.015 248.002C127.02 248.034 127.018 248.067 127.01 248.098C127.002 248.129 126.987 248.158 126.967 248.183C126.946 248.207 126.921 248.227 126.892 248.241C126.864 248.255 126.832 248.262 126.801 248.262C126.769 248.262 126.738 248.255 126.709 248.241C126.681 248.227 126.655 248.207 126.635 248.183C126.615 248.158 126.6 248.129 126.591 248.098C126.583 248.067 126.582 248.034 126.587 248.002ZM126.587 250.336C126.582 250.304 126.583 250.271 126.591 250.24C126.6 250.209 126.615 250.18 126.635 250.155C126.655 250.131 126.681 250.111 126.709 250.097C126.738 250.083 126.769 250.076 126.801 250.076C126.832 250.076 126.864 250.083 126.892 250.097C126.921 250.111 126.946 250.131 126.967 250.155C126.987 250.18 127.002 250.209 127.01 250.24C127.018 250.271 127.02 250.304 127.015 250.336C127.02 250.368 127.018 250.4 127.01 250.432C127.002 250.463 126.987 250.492 126.967 250.516C126.946 250.541 126.921 250.561 126.892 250.575C126.864 250.588 126.832 250.595 126.801 250.595C126.769 250.595 126.738 250.588 126.709 250.575C126.681 250.561 126.655 250.541 126.635 250.516C126.615 250.492 126.6 250.463 126.591 250.432C126.583 250.4 126.582 250.368 126.587 250.336Z" fill="white"/>
<path d="M127.621 248.706C127.621 247.559 128.201 246.842 129.03 246.842C129.859 246.842 130.433 247.559 130.433 248.706C130.433 249.854 129.853 250.564 129.03 250.564C128.207 250.564 127.621 249.854 127.621 248.706ZM130.172 248.706C130.172 247.683 129.706 247.09 129.03 247.09C128.354 247.09 127.882 247.683 127.882 248.706C127.882 249.73 128.354 250.316 129.03 250.316C129.706 250.316 130.172 249.749 130.172 248.706Z" fill="white"/>
<path d="M133.999 249.521H133.24V250.538H132.965V249.521H130.918V249.325L132.87 246.868H133.163L131.25 249.286H132.965V248.387H133.214V249.286H133.973L133.999 249.521Z" fill="white"/>
<path d="M90.2312 230.695H82.1054C80.5378 230.695 79.2671 231.994 79.2671 233.596V241.901C79.2671 243.503 80.5378 244.801 82.1054 244.801H90.2312C91.7987 244.801 93.0695 243.503 93.0695 241.901V233.596C93.0695 231.994 91.7987 230.695 90.2312 230.695Z" fill="#FAFAFA"/>
<path d="M172.275 243.837H164.621C163.826 243.835 163.065 243.512 162.503 242.938C161.941 242.363 161.625 241.585 161.623 240.773V232.951C161.625 232.139 161.941 231.362 162.503 230.789C163.065 230.215 163.827 229.894 164.621 229.894H172.275C173.069 229.894 173.83 230.215 174.392 230.789C174.954 231.362 175.271 232.139 175.272 232.951V240.773C175.271 241.585 174.954 242.363 174.392 242.938C173.831 243.512 173.069 243.835 172.275 243.837ZM164.621 230.213C163.911 230.213 163.231 230.501 162.729 231.013C162.227 231.525 161.944 232.219 161.942 232.944V240.767C161.944 241.492 162.226 242.188 162.728 242.701C163.23 243.214 163.911 243.503 164.621 243.505H172.275C172.985 243.505 173.666 243.216 174.169 242.703C174.671 242.189 174.953 241.493 174.953 240.767V232.944C174.952 232.219 174.669 231.525 174.167 231.013C173.664 230.501 172.984 230.213 172.275 230.213H164.621Z" fill="white"/>
<path d="M88.6814 235.454H83.649C83.4799 235.454 83.3177 235.523 83.1981 235.645C83.0784 235.767 83.0112 235.933 83.0112 236.106V239.508C83.0112 239.681 83.0784 239.847 83.1981 239.969C83.3177 240.092 83.4799 240.16 83.649 240.16H84.0764V241.66L85.773 240.16H88.6814C88.8506 240.16 89.0128 240.092 89.1324 239.969C89.252 239.847 89.3193 239.681 89.3193 239.508V236.125C89.3218 236.038 89.3072 235.951 89.2763 235.87C89.2454 235.788 89.1988 235.714 89.1393 235.652C89.0799 235.589 89.0087 235.539 88.93 235.505C88.8514 235.471 88.7668 235.454 88.6814 235.454ZM84.5675 238.452C84.4686 238.454 84.3715 238.425 84.2887 238.369C84.206 238.314 84.1412 238.235 84.1028 238.142C84.0643 238.048 84.0539 237.946 84.0729 237.846C84.0919 237.747 84.1394 237.656 84.2094 237.584C84.2793 237.513 84.3686 237.464 84.4657 237.445C84.5628 237.426 84.6633 237.436 84.7545 237.476C84.8456 237.515 84.9233 237.581 84.9775 237.666C85.0316 237.75 85.0599 237.849 85.0586 237.95C85.0586 238.084 85.0069 238.211 84.9148 238.305C84.8227 238.4 84.6978 238.452 84.5675 238.452ZM86.0983 238.452C85.9996 238.452 85.9032 238.422 85.8212 238.366C85.7393 238.31 85.6755 238.23 85.6381 238.137C85.6006 238.044 85.5911 237.941 85.6109 237.842C85.6306 237.744 85.6786 237.653 85.7488 237.582C85.819 237.511 85.9083 237.463 86.0052 237.445C86.1021 237.426 86.2023 237.437 86.2931 237.476C86.3839 237.516 86.4612 237.582 86.515 237.666C86.5689 237.751 86.597 237.85 86.5958 237.95C86.5941 238.084 86.5409 238.212 86.4478 238.306C86.3547 238.4 86.2291 238.452 86.0983 238.452ZM87.7375 238.452C87.6388 238.452 87.5424 238.422 87.4604 238.366C87.3785 238.31 87.3147 238.23 87.2773 238.137C87.2398 238.044 87.2303 237.941 87.25 237.842C87.2698 237.744 87.3178 237.653 87.388 237.582C87.4582 237.511 87.5475 237.463 87.6444 237.445C87.7413 237.426 87.8415 237.437 87.9323 237.476C88.0231 237.516 88.1003 237.582 88.1542 237.666C88.2081 237.751 88.2362 237.85 88.235 237.95C88.2333 238.084 88.1801 238.212 88.087 238.306C87.9939 238.4 87.8683 238.452 87.7375 238.452Z" fill="#2585EC"/>
<path d="M166.693 238.667C166.654 238.666 166.617 238.65 166.589 238.622C166.561 238.595 166.543 238.557 166.54 238.517C166.158 235.258 168.53 234.235 168.556 234.228C168.594 234.213 168.636 234.213 168.674 234.229C168.712 234.245 168.743 234.275 168.76 234.313C168.769 234.333 168.775 234.354 168.775 234.376C168.776 234.397 168.773 234.419 168.765 234.439C168.757 234.459 168.745 234.478 168.73 234.493C168.715 234.508 168.697 234.52 168.677 234.528C168.588 234.567 166.502 235.486 166.853 238.485C166.855 238.506 166.854 238.527 166.848 238.548C166.843 238.568 166.833 238.587 166.82 238.604C166.807 238.62 166.79 238.634 166.772 238.644C166.753 238.653 166.733 238.659 166.713 238.661L166.693 238.667Z" fill="white"/>
<path d="M166.694 238.667C166.648 238.665 166.604 238.644 166.573 238.609L165.571 237.403C165.556 237.388 165.544 237.369 165.535 237.349C165.527 237.329 165.522 237.307 165.522 237.285C165.522 237.264 165.527 237.242 165.535 237.222C165.544 237.202 165.556 237.183 165.571 237.168C165.602 237.14 165.642 237.124 165.683 237.124C165.724 237.124 165.764 237.14 165.794 237.168L166.668 238.224L167.44 237.175C167.454 237.159 167.472 237.147 167.491 237.138C167.51 237.13 167.531 237.125 167.552 237.125C167.573 237.125 167.593 237.13 167.612 237.138C167.632 237.147 167.649 237.159 167.663 237.175C167.68 237.188 167.694 237.204 167.705 237.222C167.716 237.24 167.723 237.261 167.725 237.282C167.728 237.303 167.727 237.325 167.722 237.345C167.717 237.366 167.708 237.386 167.695 237.403L166.802 238.609C166.788 238.628 166.769 238.644 166.749 238.655C166.728 238.666 166.705 238.673 166.681 238.674L166.694 238.667Z" fill="white"/>
<path d="M168.275 239.515C168.243 239.514 168.212 239.504 168.186 239.486C168.16 239.467 168.14 239.441 168.128 239.41C168.113 239.371 168.113 239.328 168.129 239.289C168.144 239.25 168.174 239.219 168.211 239.202C168.301 239.163 170.386 238.237 170.035 235.245C170.033 235.224 170.034 235.202 170.04 235.181C170.046 235.16 170.055 235.141 170.068 235.124C170.081 235.107 170.098 235.093 170.116 235.082C170.134 235.072 170.155 235.065 170.176 235.063C170.217 235.06 170.259 235.073 170.291 235.1C170.324 235.126 170.347 235.164 170.354 235.206C170.731 238.465 168.358 239.489 168.332 239.502L168.275 239.515Z" fill="white"/>
<path d="M169.322 236.595C169.287 236.596 169.253 236.584 169.226 236.562C169.192 236.536 169.17 236.497 169.164 236.455C169.158 236.412 169.169 236.368 169.194 236.334L170.087 235.128C170.101 235.108 170.119 235.092 170.14 235.081C170.161 235.069 170.184 235.063 170.208 235.063C170.254 235.065 170.298 235.087 170.329 235.121L171.331 236.327C171.36 236.358 171.376 236.399 171.376 236.441C171.376 236.484 171.36 236.525 171.331 236.556C171.3 236.586 171.259 236.603 171.216 236.603C171.173 236.603 171.132 236.586 171.101 236.556L170.227 235.5L169.456 236.542C169.439 236.562 169.419 236.577 169.395 236.586C169.372 236.596 169.346 236.598 169.322 236.595Z" fill="white"/>
<path d="M86.0669 43.01C91.2521 43.01 95.4556 38.714 95.4556 33.4145C95.4556 28.1151 91.2521 23.8191 86.0669 23.8191C80.8817 23.8191 76.6782 28.1151 76.6782 33.4145C76.6782 38.714 80.8817 43.01 86.0669 43.01Z" fill="#EBEBEB"/>
<path d="M85.5633 36.2177C85.5199 36.2157 85.4789 36.1971 85.4485 36.1656L82.9992 33.5581C82.9715 33.5269 82.9561 33.4862 82.9561 33.444C82.9561 33.4018 82.9715 33.3611 82.9992 33.3299L85.4485 30.7225C85.4793 30.6922 85.5205 30.6753 85.5633 30.6753C85.6061 30.6753 85.6472 30.6922 85.6781 30.7225C85.6935 30.7377 85.7058 30.7559 85.7142 30.7761C85.7226 30.7962 85.7269 30.8179 85.7269 30.8398C85.7269 30.8617 85.7226 30.8834 85.7142 30.9036C85.7058 30.9237 85.6935 30.9419 85.6781 30.9571L83.3373 33.4733L85.6781 35.9961C85.6935 36.0113 85.7058 36.0295 85.7142 36.0497C85.7226 36.0698 85.7269 36.0915 85.7269 36.1134C85.7269 36.1353 85.7226 36.157 85.7142 36.1771C85.7058 36.1973 85.6935 36.2155 85.6781 36.2307C85.6394 36.239 85.5992 36.2345 85.5633 36.2177Z" fill="#263238"/>
<path d="M89.817 33.5776H83.1136C83.0713 33.5776 83.0307 33.5605 83.0008 33.5299C82.9709 33.4994 82.9541 33.4579 82.9541 33.4147C82.9557 33.372 82.973 33.3314 83.0026 33.3012C83.0321 33.271 83.0718 33.2533 83.1136 33.2517H89.817C89.8593 33.2517 89.8999 33.2689 89.9298 33.2994C89.9597 33.33 89.9765 33.3715 89.9765 33.4147C89.9765 33.4579 89.9597 33.4994 89.9298 33.5299C89.8999 33.5605 89.8593 33.5776 89.817 33.5776Z" fill="#263238"/>
<path d="M178.596 202.598C179.347 197.893 176.223 193.458 171.62 192.69C167.017 191.923 162.677 195.115 161.927 199.82C161.176 204.524 164.299 208.96 168.903 209.727C173.506 210.494 177.846 207.302 178.596 202.598Z" fill="#2585EC"/>
<path d="M170.252 203.128C169.849 203.128 169.462 202.965 169.176 202.674C168.891 202.383 168.729 201.989 168.728 201.576V198.18C168.728 197.767 168.888 197.371 169.174 197.079C169.46 196.786 169.848 196.622 170.252 196.622C170.656 196.622 171.044 196.786 171.33 197.079C171.616 197.371 171.776 197.767 171.776 198.18V201.576C171.775 201.989 171.613 202.383 171.328 202.674C171.042 202.965 170.655 203.128 170.252 203.128ZM170.252 196.955C169.933 196.955 169.628 197.084 169.402 197.313C169.176 197.543 169.048 197.855 169.046 198.18V201.576C169.046 201.903 169.173 202.217 169.4 202.448C169.626 202.679 169.932 202.809 170.252 202.809C170.572 202.809 170.878 202.679 171.104 202.448C171.33 202.217 171.457 201.903 171.457 201.576V198.18C171.457 197.854 171.33 197.54 171.104 197.309C170.878 197.078 170.572 196.948 170.252 196.948V196.955Z" fill="white"/>
<path d="M170.252 204.223C169.856 204.246 169.46 204.18 169.091 204.03C168.722 203.881 168.389 203.651 168.116 203.356C167.503 202.53 167.214 201.501 167.306 200.469C167.31 200.425 167.331 200.386 167.364 200.358C167.397 200.331 167.439 200.318 167.481 200.322C167.523 200.326 167.562 200.348 167.589 200.381C167.616 200.415 167.629 200.458 167.625 200.501C167.547 201.442 167.805 202.38 168.352 203.141C168.598 203.401 168.897 203.604 169.227 203.735C169.557 203.865 169.912 203.921 170.265 203.897C170.618 203.914 170.97 203.855 171.3 203.724C171.629 203.594 171.928 203.396 172.179 203.141C172.77 202.392 173.08 201.451 173.052 200.488C173.052 200.446 173.068 200.405 173.097 200.375C173.125 200.345 173.164 200.327 173.205 200.325C173.226 200.324 173.247 200.328 173.267 200.335C173.287 200.342 173.305 200.354 173.32 200.368C173.336 200.383 173.348 200.4 173.357 200.42C173.366 200.439 173.37 200.46 173.371 200.482C173.406 201.532 173.063 202.559 172.408 203.369C172.127 203.657 171.79 203.882 171.418 204.029C171.047 204.176 170.65 204.242 170.252 204.223Z" fill="white"/>
<path d="M170.252 206.609C170.209 206.609 170.169 206.592 170.139 206.561C170.109 206.531 170.092 206.489 170.092 206.446V204.06C170.092 204.017 170.109 203.976 170.139 203.945C170.169 203.915 170.209 203.897 170.252 203.897C170.294 203.897 170.335 203.915 170.364 203.945C170.394 203.976 170.411 204.017 170.411 204.06V206.446C170.411 206.489 170.394 206.531 170.364 206.561C170.335 206.592 170.294 206.609 170.252 206.609Z" fill="white"/>
<path d="M128.157 227.729C136.357 227.729 143.005 220.935 143.005 212.554C143.005 204.173 136.357 197.378 128.157 197.378C119.956 197.378 113.308 204.173 113.308 212.554C113.308 220.935 119.956 227.729 128.157 227.729Z" fill="#2585EC"/>
<path d="M126.836 208.356C126.545 208.12 126.206 207.951 125.844 207.863C125.483 207.774 125.106 207.767 124.742 207.843C124.377 207.919 124.033 208.075 123.734 208.301C123.434 208.527 123.187 208.817 123.009 209.151C122.839 209.469 122.781 209.838 122.846 210.194C122.912 210.551 123.095 210.873 123.366 211.107C124.731 212.476 127.595 215.22 128.839 216.413C129.175 216.74 129.579 216.986 130.021 217.131C130.462 217.277 130.93 217.319 131.39 217.254C131.751 217.201 132.096 217.072 132.406 216.875C132.715 216.679 132.982 216.42 133.189 216.113C134.598 214.158 131.231 212.606 131.231 212.606L129.757 214.184L126.326 210.801L127.831 209.106L126.836 208.356Z" fill="white"/>
</svg>
